<?xml version="1.0" encoding="utf-8"?>
<!-- Generator: Adobe Illustrator 27.7.0, SVG Export Plug-In . SVG Version: 6.00 Build 0)  -->
<svg version="1.1" id="Capa_1" xmlns="http://www.w3.org/2000/svg" xmlns:xlink="http://www.w3.org/1999/xlink" x="0px" y="0px"
	 viewBox="0 0 105 53" style="enable-background:new 0 0 105 53;" xml:space="preserve">
<style type="text/css">
	.st0{fill:#FFFFFF;}
</style>
<g>
	<g>
		<path class="st0" d="M15.53,20.53H7.53L5.81,26.3h-5.4L7.6,4.52c0.43-1.26,0.66-1.52,1.89-1.52h4.48c1.19,0,1.46,0.3,1.89,1.52
			l7.19,21.78h-5.77L15.53,20.53z M8.73,16.49h5.6l-2.59-8.62h-0.43L8.73,16.49z"/>
		<path class="st0" d="M43.97,25.18c-0.83,0.8-1.86,1.13-4.17,1.13h-7.1c-2.29,0-3.35-0.33-4.18-1.13
			c-1.33-1.26-2.29-3.38-2.29-10.48c0-7.13,0.96-9.25,2.29-10.48c0.83-0.79,1.89-1.13,4.18-1.13h7.1c2.32,0,3.35,0.33,4.17,1.13
			c1.23,1.16,1.79,2.92,1.86,7.26h-5.17c-0.1-2.88-0.4-3.51-0.66-3.78c-0.23-0.23-0.53-0.33-1.59-0.33h-4.31
			c-1.06,0-1.36,0.1-1.59,0.33c-0.3,0.27-0.73,1.09-0.73,7s0.43,6.7,0.73,6.99c0.23,0.2,0.53,0.3,1.59,0.3h4.31
			c1.06,0.03,1.36-0.1,1.59-0.3c0.26-0.26,0.56-0.83,0.66-4.04h5.2C45.72,22.32,45.19,24.01,43.97,25.18z"/>
		<path class="st0" d="M48.84,28.84L62.13,0h4.97L53.84,28.84H48.84z"/>
		<path class="st0" d="M88.09,26.3h-17.4V3.09h17.4v4.28h-12v4.97h9.35v4.08h-9.35v5.6h12V26.3z"/>
	</g>
	<g>
		<path class="st0" d="M4.59,38.8H1.73l-0.67,2.08H0.29l2.22-6.59c0.06-0.2,0.12-0.25,0.37-0.25H3.5c0.24,0,0.3,0.05,0.37,0.25
			l2.22,6.59H5.26L4.59,38.8z M1.95,38.14h2.43l-1.11-3.43h-0.2L1.95,38.14z"/>
		<path class="st0" d="M13.08,40.61c-0.21,0.2-0.46,0.27-1.07,0.27H9.99c-0.61,0-0.86-0.08-1.07-0.27
			c-0.35-0.33-0.56-0.83-0.56-3.14c0-2.31,0.21-2.8,0.56-3.14c0.21-0.19,0.46-0.27,1.07-0.27h2.02c0.61,0,0.86,0.08,1.07,0.27
			c0.32,0.3,0.48,0.7,0.51,1.85h-0.76c-0.03-0.92-0.14-1.18-0.27-1.31c-0.1-0.09-0.22-0.15-0.62-0.15h-1.86
			c-0.41,0-0.53,0.06-0.62,0.15c-0.16,0.16-0.31,0.51-0.31,2.6c0,2.09,0.16,2.44,0.31,2.6c0.1,0.09,0.21,0.15,0.62,0.15h1.86
			c0.41,0.01,0.53-0.06,0.62-0.15c0.14-0.14,0.24-0.37,0.28-1.42h0.76C13.55,39.95,13.4,40.31,13.08,40.61z"/>
		<path class="st0" d="M20.92,40.61c-0.21,0.2-0.46,0.27-1.07,0.27h-2.02c-0.61,0-0.86-0.08-1.07-0.27
			c-0.35-0.33-0.56-0.83-0.56-3.14c0-2.31,0.21-2.8,0.56-3.14c0.21-0.19,0.46-0.27,1.07-0.27h2.02c0.61,0,0.86,0.08,1.07,0.27
			c0.32,0.3,0.48,0.7,0.51,1.85h-0.76c-0.03-0.92-0.14-1.18-0.27-1.31c-0.1-0.09-0.22-0.15-0.62-0.15h-1.86
			c-0.41,0-0.53,0.06-0.62,0.15c-0.16,0.16-0.31,0.51-0.31,2.6c0,2.09,0.16,2.44,0.31,2.6c0.1,0.09,0.21,0.15,0.62,0.15h1.86
			c0.41,0.01,0.52-0.06,0.62-0.15c0.14-0.14,0.24-0.37,0.28-1.42h0.76C21.39,39.95,21.24,40.31,20.92,40.61z"/>
		<path class="st0" d="M24.26,40.88v-6.82h0.77v6.82H24.26z"/>
		<path class="st0" d="M31.72,34.06c0.62,0,0.87,0.08,1.07,0.27c0.36,0.33,0.57,0.83,0.57,3.14c0,2.31-0.21,2.8-0.57,3.14
			c-0.2,0.2-0.45,0.27-1.07,0.27h-2.1c-0.61,0-0.86-0.08-1.07-0.27c-0.35-0.33-0.57-0.83-0.57-3.14c0-2.31,0.21-2.8,0.57-3.14
			c0.21-0.19,0.46-0.27,1.07-0.27H31.72z M29.08,40.07c0.1,0.09,0.21,0.15,0.62,0.15h1.95c0.41,0.01,0.52-0.06,0.62-0.15
			c0.17-0.16,0.31-0.51,0.31-2.6c0-2.09-0.15-2.44-0.31-2.6c-0.1-0.09-0.21-0.15-0.62-0.15H29.7c-0.41,0-0.53,0.06-0.62,0.15
			c-0.16,0.16-0.31,0.51-0.31,2.6C28.76,39.57,28.92,39.92,29.08,40.07z M30.21,33.37l0.9-1.1h1.13v0.05l-1.37,1.1h-0.65V33.37z"/>
		<path class="st0" d="M41.51,40.88h-0.79c-0.24,0-0.33-0.05-0.44-0.26l-3.13-5.56h-0.12v5.82h-0.75v-6.82h0.85
			c0.24,0,0.32,0.06,0.43,0.27l3.07,5.41h0.13v-5.69h0.75V40.88z"/>
		<path class="st0" d="M52.62,40.61c-0.21,0.2-0.46,0.27-1.07,0.27h-2.02c-0.61,0-0.86-0.08-1.07-0.27
			c-0.35-0.33-0.56-0.83-0.56-3.14c0-2.31,0.21-2.8,0.56-3.14c0.21-0.19,0.46-0.27,1.07-0.27h2.02c0.61,0,0.86,0.08,1.07,0.27
			c0.32,0.3,0.48,0.7,0.51,1.85h-0.76c-0.03-0.92-0.14-1.18-0.27-1.31c-0.1-0.09-0.21-0.15-0.62-0.15h-1.86
			c-0.41,0-0.53,0.06-0.62,0.15c-0.16,0.16-0.31,0.51-0.31,2.6c0,2.09,0.16,2.44,0.31,2.6c0.1,0.09,0.21,0.15,0.62,0.15h1.86
			c0.41,0.01,0.53-0.06,0.62-0.15c0.14-0.14,0.24-0.37,0.28-1.42h0.76C53.09,39.95,52.94,40.31,52.62,40.61z"/>
		<path class="st0" d="M61.1,38.11c0,1.64-0.15,2.07-0.49,2.42c-0.26,0.25-0.64,0.35-1.41,0.35h-1.41c-0.76,0-1.13-0.1-1.38-0.35
			c-0.34-0.34-0.49-0.77-0.49-2.42v-4.04h0.77v4.18c0,1.33,0.12,1.61,0.29,1.78c0.12,0.12,0.29,0.18,0.95,0.18h1.18
			c0.65,0,0.82-0.06,0.94-0.18c0.18-0.19,0.28-0.43,0.28-1.78v-4.18h0.76V38.11z"/>
		<path class="st0" d="M65,40.22h3.47v0.66h-4.24v-6.82H65V40.22z"/>
		<path class="st0" d="M72.27,34.73v6.15H71.5v-6.15h-2.22v-0.66h5.21v0.66H72.27z"/>
		<path class="st0" d="M81.88,38.11c0,1.64-0.15,2.07-0.49,2.42c-0.26,0.25-0.64,0.35-1.41,0.35h-1.41c-0.76,0-1.13-0.1-1.38-0.35
			c-0.34-0.34-0.49-0.77-0.49-2.42v-4.04h0.77v4.18c0,1.33,0.12,1.61,0.29,1.78c0.12,0.12,0.29,0.18,0.95,0.18h1.18
			c0.65,0,0.82-0.06,0.94-0.18c0.18-0.19,0.28-0.43,0.28-1.78v-4.18h0.76V38.11z"/>
		<path class="st0" d="M88.81,38.11c-0.15-0.14-0.35-0.19-0.76-0.19h-2.28v2.96h-0.77v-6.82h3.45c0.48,0,0.79,0.08,1,0.28
			c0.26,0.26,0.43,0.61,0.43,1.61c0,1.18-0.33,1.52-1.01,1.66v0.01c0.67,0.16,0.92,0.35,0.96,1.44c0.03,0.8,0.06,1.4,0.11,1.81
			h-0.76c-0.07-0.46-0.11-1.09-0.13-1.79C89.04,38.41,88.96,38.23,88.81,38.11z M88.25,37.28c0.35,0,0.5-0.07,0.59-0.17
			c0.12-0.12,0.27-0.35,0.27-1.12c0-0.78-0.15-1.01-0.26-1.13c-0.1-0.1-0.26-0.14-0.58-0.14h-2.49v2.55H88.25z"/>
		<path class="st0" d="M96.52,38.8h-2.85l-0.67,2.08h-0.77l2.22-6.59c0.06-0.2,0.12-0.25,0.37-0.25h0.61c0.24,0,0.3,0.05,0.37,0.25
			l2.22,6.59h-0.83L96.52,38.8z M93.88,38.14h2.42l-1.11-3.43h-0.2L93.88,38.14z"/>
		<path class="st0" d="M101.24,40.22h3.47v0.66h-4.24v-6.82h0.77V40.22z"/>
		<path class="st0" d="M5.46,53h-4.5v-6.82h4.53v0.66H1.73v2.29h3.22v0.65H1.73v2.55h3.73V53z"/>
		<path class="st0" d="M12.65,52.7c-0.2,0.19-0.48,0.3-0.99,0.3H9.33c-0.51,0-0.79-0.07-0.99-0.28c-0.26-0.26-0.36-0.54-0.37-1.77
			h0.75c0.02,0.95,0.07,1.13,0.19,1.25c0.1,0.1,0.22,0.15,0.55,0.15h2.09c0.32,0,0.46-0.04,0.56-0.16c0.13-0.13,0.19-0.4,0.19-1.05
			c0-0.63-0.03-0.81-0.18-0.95c-0.11-0.1-0.23-0.15-0.6-0.18l-2.13-0.19c-0.54-0.05-0.82-0.16-1-0.34
			c-0.24-0.24-0.32-0.55-0.32-1.43c0-0.84,0.1-1.26,0.4-1.55c0.18-0.2,0.48-0.3,0.98-0.3h2.11c0.51,0,0.8,0.07,1,0.28
			c0.27,0.27,0.35,0.56,0.37,1.72h-0.76c-0.01-0.88-0.06-1.07-0.18-1.2c-0.11-0.1-0.23-0.15-0.54-0.15H9.55
			c-0.32,0-0.45,0.04-0.56,0.16c-0.13,0.14-0.17,0.44-0.17,1.02c0,0.61,0.04,0.78,0.17,0.92c0.11,0.11,0.23,0.14,0.6,0.17l2.13,0.19
			c0.52,0.05,0.81,0.16,0.99,0.34c0.24,0.24,0.33,0.57,0.33,1.48C13.05,52.03,12.94,52.42,12.65,52.7z"/>
		<path class="st0" d="M20.22,50.02c-0.21,0.21-0.54,0.27-1.04,0.27H16.7V53h-0.77v-6.82h3.24c0.51,0,0.83,0.06,1.04,0.27
			c0.28,0.26,0.5,0.64,0.5,1.8C20.71,49.38,20.5,49.76,20.22,50.02z M19.01,49.63c0.37,0,0.54-0.04,0.65-0.15
			c0.13-0.12,0.27-0.36,0.27-1.25c0-0.9-0.15-1.13-0.27-1.25c-0.12-0.11-0.28-0.15-0.65-0.15H16.7v2.79H19.01z"/>
		<path class="st0" d="M26.99,50.92h-2.85L23.47,53H22.7l2.22-6.59c0.06-0.2,0.12-0.25,0.37-0.25h0.61c0.24,0,0.3,0.05,0.37,0.25
			L28.49,53h-0.83L26.99,50.92z M24.35,50.26h2.43l-1.11-3.43h-0.21L24.35,50.26z"/>
		<path class="st0" d="M36.17,53h-0.79c-0.24,0-0.33-0.05-0.44-0.26l-3.13-5.56H31.7V53h-0.75v-6.82h0.85
			c0.24,0,0.32,0.06,0.43,0.27l3.07,5.41h0.13v-5.69h0.75V53z M32.14,44.81c0-0.18,0.03-0.31,0.1-0.39c0.06-0.07,0.15-0.11,0.3-0.11
			h0.12c0.18,0,0.3,0.04,0.59,0.15l1.15,0.45l0.2-0.58h0.38v0.64c0,0.18-0.03,0.31-0.1,0.39c-0.06,0.07-0.15,0.11-0.3,0.11h-0.12
			c-0.18,0-0.3-0.04-0.59-0.14l-1.15-0.45l-0.2,0.58h-0.38V44.81z"/>
		<path class="st0" d="M42.84,46.18c0.62,0,0.87,0.08,1.07,0.27c0.36,0.33,0.56,0.83,0.56,3.14c0,2.31-0.21,2.8-0.56,3.14
			C43.7,52.92,43.46,53,42.84,53h-2.1c-0.61,0-0.86-0.08-1.07-0.27c-0.35-0.33-0.57-0.83-0.57-3.14c0-2.31,0.22-2.8,0.57-3.14
			c0.21-0.19,0.46-0.27,1.07-0.27H42.84z M40.19,52.19c0.1,0.09,0.21,0.15,0.62,0.15h1.95c0.41,0.01,0.53-0.06,0.62-0.15
			c0.17-0.16,0.31-0.51,0.31-2.6c0-2.09-0.15-2.44-0.31-2.6c-0.1-0.09-0.21-0.15-0.62-0.15h-1.95c-0.41,0-0.53,0.06-0.62,0.15
			c-0.16,0.16-0.31,0.51-0.31,2.6C39.88,51.68,40.03,52.04,40.19,52.19z"/>
		<path class="st0" d="M48.17,52.34h3.47V53H47.4v-6.82h0.77V52.34z"/>
		<path class="st0" d="M57.76,50.92h-2.85L54.24,53h-0.77l2.22-6.59c0.06-0.2,0.12-0.25,0.37-0.25h0.61c0.24,0,0.3,0.05,0.37,0.25
			L59.26,53h-0.83L57.76,50.92z M55.12,50.26h2.43l-1.11-3.43h-0.21L55.12,50.26z"/>
	</g>
</g>
</svg>
