<svg version="1.1" id="Capa_1" xmlns="http://www.w3.org/2000/svg" x="0" y="0" viewBox="0 0 263 75" xml:space="preserve"><style>.st0{fill:#fff}</style><path class="st0" d="M91.29 7.43h1.26l6.28 14.94h-2.14l-1.45-3.66h-6.69l-1.47 3.66h-2.06l6.27-14.94zm3.23 9.51-2.62-6.56-2.64 6.56h5.26zM104.48 14.69 99.7 7.44h2.29l3.72 5.65 3.68-5.65h2.21l-4.78 7.3 5.04 7.64h-2.29l-3.98-6.04-3.94 6.04h-2.21l5.04-7.69zM114.15 7.43h9.18l-.61 1.82h-6.62v4.42h5.93v1.82h-5.93v5.07h6.71l.61 1.82h-9.27V7.43zM126.23 7.43h1.65l7.64 10.65V7.43h1.95v14.94h-1.1l-8.18-11.41v11.41h-1.95V7.43zM140.58 14.79c0-4.63 2.53-7.71 6.58-7.71 1.75 0 3.62.65 4.98 1.67v2.27c-1.65-1.23-3.46-2.08-4.98-2.08-2.6 0-4.5 2.21-4.5 5.85 0 3.77 1.82 6.06 4.5 6.06 1.52 0 3.33-.84 4.98-2.08v2.27c-1.36 1.02-3.23 1.67-4.98 1.67-4.13.01-6.58-3.15-6.58-7.92zM155.22 7.43h1.95v14.94h-1.95V7.43zM165.74 7.43H167l6.28 14.94h-2.14l-1.45-3.66H163l-1.47 3.66h-2.06l6.27-14.94zm3.23 9.51-2.62-6.56-2.64 6.56h5.26zM180.46 14.84c0-4.65 2.9-7.75 7.34-7.75 1.67 0 3.66.65 5.13 1.52v2.25c-1.84-1.15-3.83-1.91-5.13-1.91-3.1 0-5.26 2.36-5.26 5.89 0 3.75 1.88 6.06 4.68 6.06 2.6 0 4.48-1.65 4.72-4.44h-4.18l-.58-1.82h6.69c.09.41.13.87.13 1.36 0 3.96-2.62 6.75-6.78 6.75s-6.76-3.04-6.76-7.91zM201.65 7.43h1.26l6.28 14.94h-2.14l-1.45-3.66h-6.69l-1.47 3.66h-2.06l6.27-14.94zm3.23 9.51-2.62-6.56-2.64 6.56h5.26zM211.48 7.43h1.95v13.12h6.93l.61 1.82h-9.48V7.43zM223.35 7.43h9.18l-.61 1.82h-6.62v4.42h5.93v1.82h-5.93v5.07h6.71l.61 1.82h-9.27V7.43zM234.32 14.84c0-4.65 2.9-7.75 7.34-7.75 1.67 0 3.66.65 5.13 1.52v2.25c-1.84-1.15-3.83-1.91-5.13-1.91-3.1 0-5.26 2.36-5.26 5.89 0 3.75 1.88 6.06 4.68 6.06 2.6 0 4.48-1.65 4.72-4.44h-4.18l-.58-1.82h6.69c.09.41.13.87.13 1.36 0 3.96-2.62 6.75-6.78 6.75s-6.76-3.04-6.76-7.91zM255.52 7.43h1.26l6.28 14.94h-2.14l-1.45-3.66h-6.69l-1.47 3.66h-2.06l6.27-14.94zm3.22 9.51-2.62-6.56-2.64 6.56h5.26zM98.54 37.22c0 4.85-2.79 7.58-6.91 7.58H86.7V29.86h4.72c4.29 0 7.12 2.66 7.12 7.36zm-2.07 0c0-3.7-2.14-5.54-5.09-5.54h-2.73v11.3h2.86c2.9 0 4.96-1.91 4.96-5.76zM105.86 29.86h1.26l6.28 14.94h-2.14l-1.45-3.66h-6.69l-1.47 3.66h-2.06l6.27-14.94zm3.23 9.5-2.62-6.56-2.64 6.56h5.26zM114.69 43.98V41.9c1.26.8 2.81 1.41 3.94 1.41 1.99 0 3.29-.97 3.29-2.45 0-1.43-1.28-2.1-3.03-2.97-2.16-1.08-4.01-1.91-4.01-4.46 0-2.16 1.73-3.92 4.57-3.92 1.45 0 2.94.45 4.09 1.08v2.06c-1.41-.76-2.9-1.3-4.09-1.3-1.71 0-2.6.95-2.6 2.04 0 1.21.95 1.71 2.73 2.62 2.58 1.32 4.35 2.12 4.35 4.76 0 2.73-2.14 4.37-5.26 4.37-1.47 0-2.96-.51-3.98-1.16zM132.77 29.86h1.95V44.8h-1.95V29.86zM138.7 29.86h1.65l7.64 10.65V29.86h1.95V44.8h-1.1l-8.18-11.41V44.8h-1.95V29.86zM165.76 37.22c0 4.85-2.79 7.58-6.91 7.58h-4.94V29.86h4.72c4.3 0 7.13 2.66 7.13 7.36zm-2.08 0c0-3.7-2.14-5.54-5.09-5.54h-2.73v11.3h2.86c2.91 0 4.96-1.91 4.96-5.76zM168.75 39.8v-9.94h1.95v9.85c0 2.32 1.41 3.62 3.57 3.62s3.57-1.3 3.57-3.62v-9.85h1.95v9.94c0 3.36-2.14 5.39-5.52 5.39-3.38 0-5.52-2.04-5.52-5.39zM182.65 43.98V41.9c1.26.8 2.81 1.41 3.94 1.41 1.99 0 3.29-.97 3.29-2.45 0-1.43-1.28-2.1-3.03-2.97-2.16-1.08-4-1.91-4-4.46 0-2.16 1.73-3.92 4.57-3.92 1.45 0 2.94.45 4.09 1.08v2.06c-1.41-.76-2.9-1.3-4.09-1.3-1.71 0-2.6.95-2.6 2.04 0 1.21.95 1.71 2.73 2.62 2.58 1.32 4.35 2.12 4.35 4.76 0 2.73-2.14 4.37-5.26 4.37-1.48 0-2.98-.51-3.99-1.16zM199.25 31.68h-5.41l-.61-1.82h13.99l-.61 1.82h-5.41V44.8h-1.95V31.68zM209.47 29.86h4.33c3.14 0 5.04 1.58 5.04 4.26 0 2.58-1.77 4.18-4.59 4.33l5.74 6.34h-2.53l-5.56-6.32h-.48v6.32h-1.95V29.86zm4.16 6.97c1.88 0 3.18-1.06 3.18-2.66 0-1.56-1.17-2.53-3.1-2.53h-2.29v5.2h2.21zM222.37 29.86h1.95V44.8h-1.95V29.86zM232.89 29.86h1.26l6.28 14.94h-2.14l-1.45-3.66h-6.69l-1.47 3.66h-2.06l6.27-14.94zm3.23 9.5-2.62-6.56-2.64 6.56h5.26zM241.73 43.98V41.9c1.26.8 2.81 1.41 3.94 1.41 1.99 0 3.29-.97 3.29-2.45 0-1.43-1.28-2.1-3.03-2.97-2.16-1.08-4-1.91-4-4.46 0-2.16 1.73-3.92 4.57-3.92 1.45 0 2.94.45 4.09 1.08v2.06c-1.41-.76-2.9-1.3-4.09-1.3-1.71 0-2.6.95-2.6 2.04 0 1.21.95 1.71 2.73 2.62 2.58 1.32 4.35 2.12 4.35 4.76 0 2.73-2.14 4.37-5.26 4.37-1.48 0-2.98-.51-3.99-1.16zM85.84 59.65c0-4.63 2.53-7.71 6.58-7.71 1.75 0 3.62.65 4.98 1.67v2.27c-1.65-1.23-3.46-2.08-4.98-2.08-2.6 0-4.5 2.21-4.5 5.85 0 3.77 1.82 6.06 4.5 6.06 1.52 0 3.33-.84 4.98-2.08v2.27c-1.36 1.02-3.23 1.67-4.98 1.67-4.14.01-6.58-3.16-6.58-7.92zM100.34 62.23v-9.94h1.95v9.85c0 2.32 1.41 3.62 3.57 3.62s3.57-1.3 3.57-3.62v-9.85h1.95v9.94c0 3.36-2.14 5.39-5.52 5.39s-5.52-2.04-5.52-5.39zM115.23 52.29h1.95v13.12h6.93l.61 1.82h-9.48V52.29zM131.38 54.11h-5.41l-.61-1.82h13.99l-.61 1.82h-5.41v13.12h-1.95V54.11zM141.47 62.23v-9.94h1.95v9.85c0 2.32 1.41 3.62 3.57 3.62s3.57-1.3 3.57-3.62v-9.85h1.95v9.94c0 3.36-2.14 5.39-5.52 5.39-3.37 0-5.52-2.04-5.52-5.39zM156.37 52.29h4.33c3.14 0 5.04 1.58 5.04 4.27 0 2.58-1.77 4.18-4.59 4.33l5.74 6.34h-2.53l-5.56-6.32h-.48v6.32h-1.95V52.29zm4.15 6.97c1.88 0 3.18-1.06 3.18-2.66 0-1.56-1.17-2.53-3.1-2.53h-2.29v5.2h2.21zM173.86 52.29h1.26l6.28 14.94h-2.14l-1.45-3.66h-6.69l-1.47 3.66h-2.06l6.27-14.94zm3.22 9.5-2.62-6.56-2.64 6.56h5.26zM183.69 52.29h1.95v14.94h-1.95V52.29zM188.62 66.41v-2.08c1.26.8 2.81 1.41 3.94 1.41 1.99 0 3.29-.97 3.29-2.45 0-1.43-1.28-2.1-3.03-2.97-2.16-1.08-4-1.91-4-4.46 0-2.16 1.73-3.92 4.57-3.92 1.45 0 2.94.46 4.09 1.08v2.06c-1.41-.76-2.9-1.3-4.09-1.3-1.71 0-2.6.95-2.6 2.03 0 1.21.95 1.71 2.73 2.62 2.58 1.32 4.35 2.12 4.35 4.76 0 2.73-2.14 4.37-5.26 4.37-1.48.02-2.97-.5-3.99-1.15zM67.26 0h2.51v75h-2.51zM-.05 74.87h52.32V.12H-.05v74.75zM24.24 6.35h1.25V5.11h1.25v1.24h1.24V7.6h-1.24v1.25h-1.25V7.6h-1.25V6.35zM14.9 59.92h-2.49v2.49H9.92v-2.49H7.43v-2.49h2.49v-2.49h2.49v2.49h2.49v2.49zm0-14.95h-2.49v2.49H9.92v-2.49H7.43v-2.49h2.49v-2.49h2.49v2.49h2.49v2.49zm0-14.95h-2.49v2.49H9.92v-2.49H7.43v-2.49h2.49v-2.49h2.49v2.49h2.49v2.49zm12.51 26.07c-.03.44-.05.89-.05 1.34 0 3.71 1.16 7.14 3.13 9.97h-8.74c1.97-2.82 3.13-6.26 3.13-9.97 0-.45-.02-.9-.05-1.34a8.725 8.725 0 0 1-7.42-8.63h17.44a8.76 8.76 0 0 1-7.44 8.63m2.44-28.56v2.49h-2.49v2.49h-2.49v-2.49h-2.49v-2.49h2.49v-2.49h2.49v2.49h2.49zm-3.74 7.48a4.98 4.98 0 1 1-.001 9.961 4.98 4.98 0 0 1 .001-9.961m8.72-13.08H17.39v-1.87h17.44v1.87zm1.76-5.05-.92 1.31h-2.33l1.66-2.4c.28-.41.38-.95.38-1.29 0-.59-.19-1.08-.56-1.47-.45-.46-1-.7-1.64-.7-.27 0-.47.02-.47.02l-.01-.01c.14.49.21.97.21 1.42 0 .81-.09 1.5-.52 2.22l-1.3 2.19h-2.27l1.84-3.13c.17-.29.31-.85.31-1.28 0-.64-.2-1.16-.61-1.58-.48-.5-1.03-.75-1.65-.75-.77 0-1.33.22-1.7.68v6.07h-1.87v-6.07c-.38-.46-.93-.68-1.7-.68-.61 0-1.16.25-1.64.75-.41.42-.61.94-.61 1.58 0 .43.13.99.31 1.28l1.84 3.13h-2.27l-1.29-2.19c-.43-.72-.52-1.41-.52-2.22 0-.45.08-.93.21-1.42l-.01.01s-.2-.02-.47-.02c-.64 0-1.19.24-1.64.7-.38.39-.57.88-.57 1.47 0 .34.1.88.38 1.29l1.67 2.4H16.5l-.91-1.31c-.5-.72-.73-1.47-.73-2.38 0-1.17.41-2.14 1.21-2.89.81-.83 1.79-1.25 2.92-1.25.48 0 1 .1 1.55.28a.8.8 0 0 1 .13-.13c.74-.69 1.67-1.04 2.77-1.04.95 0 1.84.29 2.63.87a4.37 4.37 0 0 1 2.63-.87c1.1 0 2.03.35 2.77 1.04.05.04.09.09.13.13.54-.18 1.06-.28 1.54-.28 1.13 0 2.11.42 2.92 1.25.8.75 1.21 1.72 1.21 2.89.05.91-.18 1.66-.68 2.38m8.21 43.04h-2.49v2.49h-2.49v-2.49h-2.49v-2.49h2.49v-2.49h2.49v2.49h2.49v2.49zm0-14.95h-2.49v2.49h-2.49v-2.49h-2.49v-2.49h2.49v-2.49h2.49v2.49h2.49v2.49zm0-14.95h-2.49v2.49h-2.49v-2.49h-2.49v-2.49h2.49v-2.49h2.49v2.49h2.49v2.49z"/></svg>