<?xml version="1.0" encoding="utf-8"?>
<!-- Generator: Adobe Illustrator 27.7.0, SVG Export Plug-In . SVG Version: 6.00 Build 0)  -->
<svg version="1.1" id="Capa_1" xmlns="http://www.w3.org/2000/svg" xmlns:xlink="http://www.w3.org/1999/xlink" x="0px" y="0px"
	 viewBox="0 0 140 32" style="enable-background:new 0 0 140 32;" xml:space="preserve">
<style type="text/css">
	.st0{fill:#FFFFFF;}
</style>
<g>
	<path class="st0" d="M138.89,17.2c0-4.7-4.91-5.52-7.61-5.52c-3.91,0-7.96,0.83-8.54,6.67h4.84c0.14-1.11,0.57-2.65,3.09-2.65
		c1.29,0,3.3,0.11,3.3,2.22c0,1.08-0.97,1.39-1.76,1.51l-4.52,0.68c-3.19,0.48-5.56,2.37-5.56,6.1c0,3.95,2.94,5.57,5.81,5.57
		c3.41,0,5.02-1.58,6.17-2.77c0.11,1.08,0.18,1.36,0.47,2.26H140v-0.75c-0.61-0.22-1.11-0.72-1.11-2.98V17.2 M133.97,24.42
		c0,2.33-2.26,3.77-4.48,3.77c-0.97,0-2.33-0.54-2.33-2.3c0-2.08,1.54-2.56,3.41-2.87c2.08-0.34,2.91-0.65,3.41-1.04V24.42z"/>
	<path class="st0" d="M120.15,18.07c0-4.2-2.91-6.39-6.64-6.39c-3.62,0-5.06,2.15-5.74,3.3h-0.07v-2.8h-4.81v19.09h5.02V20.33
		c0-2.91,1.72-4.41,3.95-4.41c3.19,0,3.26,2.37,3.26,3.77v11.59h5.02V18.07"/>
	<path class="st0" d="M115.78,4.83c-0.14,0.61-0.5,1.43-1.69,1.43c-0.5,0-1-0.14-2.22-0.61c-1.22-0.47-1.76-0.68-2.58-0.68
		c-1.61,0-2.63,0.74-3.3,1.69c-0.66,0.92-0.9,2.01-1.04,2.73h2.3c0.07-0.39,0.43-1.54,1.69-1.54c0.61,0,1.4,0.35,2.55,0.72
		c0.65,0.21,1.94,0.57,2.73,0.57c2.98,0,3.73-3.23,3.91-4.3H115.78"/>
	<rect x="94.46" y="5.26" class="st0" width="5.02" height="4.66"/>
	<rect x="94.46" y="12.18" class="st0" width="5.02" height="19.09"/>
	<path class="st0" d="M81.4,31.27h5.02v-9.94c0-2.12,0.72-4.56,4.63-4.56c0.47,0,1,0,1.44,0.07v-5.09
		c-0.32-0.04-0.65-0.07-0.97-0.07c-3.05,0-4.2,1.87-5.24,3.8H86.2v-3.3H81.4V31.27"/>
	<path class="st0" d="M57.81,5.51h-5.02v9.15h-0.07c-0.79-1.22-2.3-2.98-5.52-2.98c-4.2,0-7.93,3.23-7.93,9.83
		c0,5.24,2.37,10.27,8.04,10.27c2.08,0,4.3-0.76,5.52-2.91h0.07v2.4h4.91V5.51 M44.43,21.87c0-3.01,1.08-5.85,4.27-5.85
		c3.44,0,4.3,3.09,4.3,6.13c0,2.83-1.26,5.49-4.45,5.49C45.33,27.64,44.43,24.13,44.43,21.87z"/>
	<path class="st0" d="M37.1,18.07c0-4.2-2.91-6.39-6.64-6.39c-3.62,0-5.06,2.15-5.74,3.3h-0.07v-2.8h-4.81v19.09h5.02V20.33
		c0-2.91,1.72-4.41,3.95-4.41c3.19,0,3.26,2.37,3.26,3.77v11.59h5.02V18.07"/>
	<path class="st0" d="M16.75,17.2c0-4.7-4.91-5.52-7.61-5.52c-3.91,0-7.96,0.83-8.54,6.67h4.84c0.14-1.11,0.57-2.65,3.09-2.65
		c1.29,0,3.3,0.11,3.3,2.22c0,1.08-0.97,1.4-1.76,1.51l-4.52,0.68C2.37,20.58,0,22.48,0,26.21c0,3.95,2.94,5.57,5.81,5.57
		c3.41,0,5.02-1.58,6.17-2.77c0.11,1.08,0.18,1.36,0.47,2.26h5.42v-0.75c-0.61-0.22-1.11-0.72-1.11-2.98V17.2 M11.84,24.42
		c0,2.33-2.26,3.77-4.48,3.77c-0.97,0-2.33-0.54-2.33-2.3c0-2.08,1.54-2.55,3.41-2.87c2.08-0.32,2.91-0.65,3.41-1.04V24.42z"/>
	<path class="st0" d="M78.12,12.18H73.1V23.2c0,3.41-2.22,4.34-3.87,4.34c-1.54,0-3.26-0.57-3.26-3.52V12.18h-5.02v12.56
		c0,4.88,2.73,7.04,6.49,7.04c2.65,0,4.66-1.15,5.81-3.2h0.07v2.69h4.81V12.18"/>
	<path class="st0" d="M37.19,6.47l0.95-0.15c0.05,0.38,0.2,0.67,0.44,0.87c0.24,0.2,0.58,0.3,1.02,0.3c0.44,0,0.77-0.09,0.98-0.27
		c0.21-0.18,0.32-0.39,0.32-0.63c0-0.22-0.09-0.39-0.28-0.51C40.49,6,40.16,5.89,39.64,5.76c-0.7-0.18-1.19-0.33-1.46-0.46
		c-0.27-0.13-0.48-0.31-0.62-0.54c-0.14-0.23-0.21-0.48-0.21-0.76c0-0.25,0.06-0.48,0.17-0.7C37.64,3.09,37.8,2.91,38,2.77
		c0.15-0.11,0.35-0.2,0.61-0.28c0.26-0.08,0.53-0.11,0.83-0.11c0.44,0,0.83,0.07,1.17,0.19c0.34,0.13,0.58,0.3,0.74,0.52
		c0.16,0.22,0.27,0.51,0.33,0.88l-0.94,0.13c-0.04-0.29-0.17-0.52-0.37-0.68c-0.2-0.16-0.49-0.25-0.86-0.25
		c-0.44,0-0.75,0.07-0.94,0.22c-0.19,0.15-0.28,0.32-0.28,0.51c0,0.13,0.04,0.24,0.12,0.34c0.08,0.1,0.2,0.19,0.37,0.26
		c0.1,0.03,0.38,0.12,0.85,0.24c0.68,0.18,1.15,0.33,1.42,0.44c0.27,0.11,0.48,0.28,0.63,0.5c0.15,0.22,0.23,0.49,0.23,0.82
		c0,0.32-0.09,0.62-0.28,0.9c-0.19,0.28-0.46,0.5-0.81,0.65c-0.35,0.15-0.75,0.23-1.19,0.23c-0.74,0-1.29-0.15-1.68-0.46
		C37.54,7.52,37.3,7.07,37.19,6.47 M34.67,5.32c-0.35,0.14-0.87,0.26-1.56,0.36c-0.39,0.06-0.67,0.12-0.84,0.19
		c-0.16,0.07-0.29,0.17-0.38,0.31c-0.09,0.14-0.13,0.29-0.13,0.45c0,0.26,0.1,0.47,0.29,0.64c0.19,0.17,0.48,0.25,0.85,0.25
		c0.37,0,0.7-0.08,0.98-0.24c0.29-0.16,0.5-0.38,0.63-0.66c0.1-0.22,0.15-0.54,0.15-0.96V5.32z M34.75,7.46
		c-0.36,0.3-0.7,0.51-1.02,0.64c-0.33,0.12-0.68,0.19-1.06,0.19c-0.62,0-1.1-0.15-1.43-0.45c-0.33-0.3-0.5-0.69-0.5-1.16
		c0-0.28,0.06-0.53,0.19-0.76c0.13-0.23,0.29-0.41,0.49-0.55c0.21-0.14,0.43-0.24,0.69-0.31c0.19-0.05,0.47-0.1,0.85-0.14
		c0.77-0.09,1.34-0.2,1.71-0.33c0-0.13,0.01-0.21,0.01-0.25c0-0.39-0.09-0.67-0.27-0.82c-0.24-0.22-0.61-0.33-1.09-0.33
		c-0.45,0-0.78,0.08-1,0.24c-0.21,0.16-0.37,0.44-0.48,0.84L30.9,4.12c0.09-0.4,0.23-0.72,0.42-0.97c0.19-0.25,0.48-0.44,0.85-0.57
		c0.37-0.13,0.8-0.2,1.28-0.2c0.48,0,0.87,0.06,1.17,0.17c0.3,0.11,0.52,0.26,0.67,0.43c0.14,0.17,0.24,0.39,0.3,0.65
		c0.03,0.16,0.05,0.46,0.05,0.88v1.28c0,0.89,0.02,1.45,0.06,1.69c0.04,0.24,0.12,0.46,0.24,0.68h-1
		C34.84,7.96,34.78,7.73,34.75,7.46z M28.85,6.09l0.94,0.12c-0.1,0.65-0.36,1.16-0.79,1.52c-0.42,0.37-0.94,0.55-1.56,0.55
		c-0.77,0-1.39-0.25-1.86-0.76c-0.47-0.5-0.71-1.23-0.71-2.17c0-0.61,0.1-1.14,0.3-1.6c0.2-0.46,0.51-0.8,0.92-1.03
		c0.41-0.23,0.86-0.34,1.35-0.34c0.61,0,1.12,0.16,1.51,0.47c0.39,0.31,0.64,0.75,0.75,1.32l-0.93,0.14
		c-0.09-0.38-0.25-0.66-0.47-0.86c-0.23-0.19-0.5-0.29-0.82-0.29c-0.48,0-0.88,0.17-1.18,0.52c-0.3,0.34-0.45,0.89-0.45,1.64
		c0,0.76,0.15,1.31,0.44,1.66c0.29,0.34,0.67,0.52,1.14,0.52c0.38,0,0.69-0.12,0.94-0.35C28.62,6.92,28.78,6.57,28.85,6.09z
		 M22.29,8.16V2.51h0.96v5.65H22.29z M22.29,1.46v-1.1h0.96v1.1H22.29z M19.04,8.16v-4.9h-0.84V2.51h0.84v-0.6
		c0-0.38,0.03-0.66,0.1-0.85c0.09-0.25,0.25-0.45,0.49-0.6c0.23-0.15,0.56-0.23,0.98-0.23c0.27,0,0.57,0.03,0.89,0.1l-0.14,0.84
		c-0.2-0.04-0.39-0.05-0.56-0.05c-0.29,0-0.5,0.06-0.62,0.19c-0.12,0.12-0.18,0.36-0.18,0.7v0.52h1.1v0.74h-1.1v4.9H19.04z
		 M14.04,1.8l0.71-1.49H16L14.83,1.8H14.04z M15.9,5.32c-0.35,0.14-0.87,0.26-1.56,0.36c-0.39,0.06-0.67,0.12-0.84,0.19
		c-0.16,0.07-0.29,0.17-0.38,0.31c-0.09,0.14-0.13,0.29-0.13,0.45c0,0.26,0.1,0.47,0.29,0.64c0.19,0.17,0.48,0.25,0.85,0.25
		c0.37,0,0.7-0.08,0.98-0.24c0.29-0.16,0.5-0.38,0.63-0.66c0.1-0.22,0.15-0.54,0.15-0.96V5.32z M15.98,7.46
		c-0.36,0.3-0.7,0.51-1.02,0.64c-0.33,0.12-0.68,0.19-1.06,0.19c-0.62,0-1.1-0.15-1.43-0.45c-0.33-0.3-0.5-0.69-0.5-1.16
		c0-0.28,0.06-0.53,0.19-0.76c0.13-0.23,0.29-0.41,0.49-0.55c0.21-0.14,0.43-0.24,0.69-0.31c0.19-0.05,0.47-0.1,0.85-0.14
		c0.77-0.09,1.34-0.2,1.71-0.33c0-0.13,0.01-0.21,0.01-0.25c0-0.39-0.09-0.67-0.27-0.82c-0.24-0.22-0.61-0.33-1.09-0.33
		c-0.45,0-0.78,0.08-1,0.24c-0.21,0.16-0.37,0.44-0.48,0.84l-0.94-0.13c0.09-0.4,0.23-0.72,0.42-0.97c0.19-0.25,0.48-0.44,0.85-0.57
		c0.37-0.13,0.8-0.2,1.28-0.2c0.48,0,0.87,0.06,1.17,0.17c0.3,0.11,0.52,0.26,0.67,0.43c0.14,0.17,0.24,0.39,0.3,0.65
		c0.03,0.16,0.05,0.46,0.05,0.88v1.28c0,0.89,0.02,1.45,0.06,1.69c0.04,0.24,0.12,0.46,0.24,0.68h-1
		C16.08,7.96,16.01,7.73,15.98,7.46z M8.21,8.16V2.51h0.86v0.86c0.22-0.4,0.42-0.66,0.61-0.79c0.19-0.13,0.39-0.19,0.61-0.19
		c0.32,0,0.65,0.1,0.98,0.31l-0.33,0.89c-0.23-0.14-0.47-0.21-0.7-0.21c-0.21,0-0.4,0.06-0.56,0.19c-0.17,0.13-0.29,0.3-0.36,0.52
		C9.22,4.42,9.16,4.79,9.16,5.2v2.96H8.21z M2.32,5.23c0,0.74,0.15,1.28,0.44,1.62c0.29,0.34,0.66,0.51,1.11,0.51
		c0.44,0,0.81-0.17,1.11-0.51c0.3-0.34,0.45-0.87,0.45-1.59c0-0.69-0.15-1.21-0.46-1.56C4.65,3.35,4.28,3.17,3.85,3.17
		c-0.42,0-0.79,0.17-1.09,0.52C2.47,4.04,2.32,4.55,2.32,5.23z M1.53,8.62l0.93,0.14c0.04,0.29,0.15,0.5,0.32,0.63
		c0.24,0.18,0.56,0.26,0.97,0.26c0.44,0,0.79-0.09,1.03-0.26c0.24-0.18,0.4-0.43,0.49-0.74c0.05-0.2,0.07-0.6,0.07-1.23
		C4.92,7.91,4.4,8.16,3.78,8.16C3,8.16,2.4,7.88,1.97,7.32C1.55,6.76,1.34,6.08,1.34,5.3c0-0.54,0.1-1.04,0.29-1.49
		C1.82,3.35,2.11,3,2.48,2.75C2.85,2.5,3.28,2.38,3.78,2.38c0.67,0,1.22,0.27,1.65,0.81V2.51h0.88v4.88c0,0.88-0.09,1.5-0.27,1.87
		C5.87,9.63,5.58,9.92,5.2,10.13c-0.39,0.21-0.87,0.32-1.43,0.32c-0.67,0-1.22-0.15-1.63-0.46C1.71,9.69,1.51,9.23,1.53,8.62z"/>
</g>
</svg>
