<?xml version="1.0" encoding="utf-8"?>
<!-- Generator: Adobe Illustrator 27.7.0, SVG Export Plug-In . SVG Version: 6.00 Build 0)  -->
<svg version="1.1" id="Capa_1" xmlns="http://www.w3.org/2000/svg" xmlns:xlink="http://www.w3.org/1999/xlink" x="0px" y="0px"
	 viewBox="0 0 150 41" style="enable-background:new 0 0 150 41;" xml:space="preserve">
<style type="text/css">
	.st0{fill:#FFFFFF;}
</style>
<g>
	<path class="st0" d="M114.45,26.32v-4.4c0-4.65-12.12-0.5-12.12-8.23c0-3.36,2.68-5.58,7.4-5.58c4.83,0,7.44,2.54,7.44,6.01v0.15
		h-2.89c0-2.47-1.68-3.58-4.65-3.58c-3.01,0-4.51,1.22-4.51,2.9c0,5.22,12.13,0.61,12.13,8.19
		C117.24,23.78,116.24,25.35,114.45,26.32 M78.32,27.1h-2.07c-4.01,0-6.69-2.15-6.69-6.37v-9.8H66.4V8.36h3.19V3.24h2.86v17.35
		c0,2.86,1.29,3.83,3.87,3.83h2V27.1z M10.95,22.85v2.83c-2.11,1.11-3.51,1.64-5.51,1.64C2.18,27.32,0,25.17,0,22.09
		c0-3.75,2.9-5.61,6.69-5.61h4.26v2.54H6.91c-3.18,0-3.97,1.5-3.97,3c0,1.61,1,2.58,2.76,2.58c1.46,0,2.72-0.43,4.04-1.11
		L10.95,22.85z M54.35,18.91H43.43v-2.51h8.15V15.8c0-3.25-1.89-5.12-5.15-5.12c-1.18,0-2.22,0.25-3,0.72V8.57
		c0.89-0.32,1.93-0.5,3-0.5c4.61,0,7.91,3.04,7.91,7.73V18.91z"/>
	<path class="st0" d="M22.65,27.1h-3.43l5.55-7.69l1.64,2.25L22.65,27.1z M62.83,1.92V2.6c0,0.97-0.72,1.61-1.72,1.61
		c-1.04,0-1.75-0.64-1.75-1.61V1.92c0-0.97,0.72-1.61,1.75-1.61C62.11,0.3,62.83,0.95,62.83,1.92 M112.23,24.45v2.65
		c-0.82,0.14-1.68,0.25-2.65,0.25c-4.83,0-7.73-2.54-7.73-6.01V21.2h2.97c0,2.47,1.79,3.58,4.87,3.58
		C110.69,24.78,111.52,24.67,112.23,24.45 M78.17,10.93h-3.51V8.36h3.51V10.93z M62.58,27.1h-2.93V8.36h2.93V27.1z M54.27,21.27
		v0.14c0,3.47-3.04,5.98-7.8,5.98c-4.62,0-8.05-2.61-8.05-7.05V15.8c0-2.61,1.04-4.73,2.79-6.05v10.34c0,3.23,2.25,4.72,5.26,4.72
		c3.08,0,5.05-1.07,5.05-3.54H54.27z M36.46,27.1h-3.43L19.39,8.36h3.47l5.05,7.16l5.01-7.16h3.37l-6.62,9.23L36.46,27.1z
		 M15.99,27.1h-2.83V15.16c0-3.08-1.75-4.58-4.79-4.58c-3.22,0-5.08,1.36-5.08,4.11H0.47v-0.18C0.47,10.4,3.76,8,8.34,8
		c4.83,0,7.66,2.65,7.66,6.97V27.1z M94.74,25.82v-9.74c0-3.43-2.18-5.36-5.36-5.36c-3.19,0-5.37,1.93-5.37,5.36v3.4
		c0,3.4,2.18,5.36,5.37,5.36c1.21,0,2.29-0.28,3.15-0.82V27c-0.97,0.29-2.04,0.5-3.15,0.5c-4.73,0-8.2-3.04-8.2-7.73V15.8
		c0-4.69,3.47-7.73,8.2-7.73c4.72,0,8.19,3.04,8.19,7.73v3.97C97.57,22.38,96.49,24.49,94.74,25.82"/>
	<path class="st0" d="M126.99,25.68l-2.45-3.18c-0.7,0.42-1.05,0.94-1.05,1.55c0,0.35,0.09,0.7,0.28,1.05
		c0.18,0.34,0.43,0.63,0.74,0.85c0.31,0.22,0.65,0.33,1,0.33c0.29,0,0.55-0.06,0.77-0.17C126.52,25.99,126.75,25.85,126.99,25.68
		 M126.7,19.45c0-0.19-0.03-0.37-0.11-0.54c-0.07-0.17-0.18-0.3-0.33-0.41c-0.15-0.1-0.33-0.16-0.53-0.16
		c-0.29,0-0.52,0.09-0.68,0.28c-0.16,0.19-0.25,0.4-0.25,0.63c0,0.54,0.26,1.16,0.78,1.87c0.34-0.25,0.61-0.5,0.82-0.74
		C126.59,20.15,126.7,19.84,126.7,19.45 M131.63,25.15c-0.03,0.37-0.11,0.72-0.25,1.07c-0.14,0.35-0.36,0.64-0.65,0.87
		c-0.29,0.23-0.65,0.35-1.09,0.35c-0.22,0-0.44-0.03-0.65-0.1c-0.21-0.07-0.44-0.19-0.68-0.37c-0.25-0.18-0.55-0.45-0.91-0.81
		c-0.46,0.44-0.94,0.76-1.42,0.98c-0.48,0.21-0.93,0.32-1.37,0.32c-0.5,0-0.95-0.12-1.36-0.36c-0.4-0.24-0.71-0.55-0.92-0.93
		c-0.22-0.39-0.33-0.8-0.33-1.24c0-0.25,0.04-0.54,0.12-0.84c0.09-0.31,0.29-0.65,0.61-1.05c0.32-0.39,0.79-0.76,1.41-1.09
		c-0.23-0.41-0.41-0.77-0.54-1.09c-0.12-0.32-0.18-0.65-0.18-1.02c0-0.35,0.06-0.67,0.2-0.95c0.13-0.28,0.31-0.51,0.51-0.68
		c0.22-0.18,0.46-0.31,0.72-0.4c0.27-0.09,0.54-0.14,0.81-0.14c0.41,0,0.76,0.09,1.06,0.27c0.3,0.18,0.53,0.41,0.69,0.68
		c0.16,0.28,0.24,0.57,0.24,0.87c0,0.4-0.15,0.79-0.43,1.19c-0.29,0.39-0.71,0.73-1.26,1.01l2.14,2.81
		c0.27-0.32,0.49-0.65,0.69-0.98c0.2-0.33,0.3-0.65,0.3-0.96c0-0.1-0.05-0.23-0.14-0.39c-0.09-0.15-0.28-0.22-0.59-0.22V21.3h2.86
		v0.64c-0.25,0.05-0.46,0.13-0.62,0.24c-0.15,0.1-0.29,0.23-0.42,0.39c-0.12,0.16-0.33,0.46-0.61,0.92l-0.3,0.49
		c-0.25,0.4-0.5,0.74-0.76,1.02c0.22,0.33,0.48,0.62,0.78,0.88c0.29,0.26,0.57,0.39,0.83,0.39c0.13,0,0.25-0.03,0.36-0.1
		c0.11-0.07,0.22-0.19,0.31-0.36c0.09-0.17,0.15-0.4,0.18-0.67H131.63z"/>
	<path class="st0" d="M141.66,27.17h-0.65c-0.1-0.4-0.26-0.75-0.48-1.07c-0.35,0.37-0.75,0.69-1.21,0.95
		c-0.45,0.26-1.07,0.4-1.84,0.4c-0.85,0-1.64-0.21-2.36-0.62c-0.73-0.41-1.3-0.98-1.74-1.72c-0.43-0.74-0.65-1.58-0.65-2.51
		c0-0.66,0.12-1.29,0.35-1.88c0.24-0.6,0.57-1.13,1-1.58c0.44-0.45,0.95-0.81,1.55-1.07c0.6-0.26,1.26-0.39,1.98-0.39
		c1.18,0,2.15,0.38,2.92,1.15c0.1-0.2,0.2-0.49,0.3-0.87h0.63l0.11,3.47h-0.67c-0.13-0.59-0.34-1.11-0.65-1.57
		c-0.32-0.46-0.7-0.81-1.13-1.05c-0.43-0.24-0.88-0.36-1.36-0.36c-0.53,0-1,0.14-1.43,0.44c-0.42,0.29-0.75,0.73-0.99,1.32
		c-0.24,0.59-0.36,1.33-0.36,2.21c0,0.87,0.1,1.58,0.3,2.16c0.2,0.57,0.45,1,0.74,1.29c0.3,0.29,0.59,0.49,0.89,0.6
		c0.3,0.1,0.58,0.16,0.84,0.16c0.57,0,1.08-0.16,1.53-0.46c0.46-0.31,0.84-0.69,1.13-1.15c0.29-0.47,0.49-0.93,0.58-1.39h0.66V27.17
		z"/>
	<path class="st0" d="M148.08,24.36c0-0.79-0.11-1.38-0.31-1.78c-0.21-0.4-0.62-0.6-1.22-0.6c-0.39,0-0.68,0.09-0.91,0.26
		c-0.21,0.17-0.36,0.44-0.46,0.81c-0.07,0.36-0.12,0.83-0.12,1.41c0,0.71,0.09,1.29,0.28,1.73c0.19,0.44,0.61,0.66,1.25,0.66
		c0.42,0,0.74-0.12,0.95-0.36c0.23-0.25,0.37-0.54,0.42-0.9C148.05,25.23,148.08,24.82,148.08,24.36 M150,24.4
		c0,0.64-0.15,1.19-0.45,1.65c-0.31,0.47-0.72,0.83-1.25,1.08c-0.52,0.24-1.09,0.37-1.71,0.37c-0.58,0-1.13-0.11-1.66-0.34
		c-0.52-0.23-0.94-0.57-1.28-1.04c-0.33-0.47-0.49-1.03-0.49-1.7c0-1.01,0.34-1.77,1.03-2.29c0.69-0.53,1.5-0.78,2.45-0.78
		c0.7,0,1.31,0.14,1.82,0.42c0.51,0.28,0.9,0.65,1.16,1.12C149.87,23.35,150,23.85,150,24.4"/>
	<path class="st0" d="M46.75,36.04c0,0.98-0.2,1.29-0.99,1.29h-1.53v-2.58h1.55C46.5,34.75,46.75,34.93,46.75,36.04 M47.2,40.58
		h0.91l-1.6-2.61c0.84-0.2,1.05-0.85,1.05-1.93c0-1.19-0.24-2-1.69-2h-2.44v6.54h0.8v-2.55h1.41L47.2,40.58z"/>
	<path class="st0" d="M53.82,37.08c0-1.95-0.33-3.15-2.4-3.15c-2.08,0-2.4,1.19-2.4,3.15v0.46c0,1.95,0.33,3.14,2.4,3.14
		c2.07,0,2.4-1.19,2.4-3.14V37.08z M52.99,37.51c0,1.63-0.07,2.47-1.58,2.47c-1.51,0-1.58-0.83-1.58-2.47v-0.4
		c0-1.64,0.07-2.47,1.58-2.47c1.51,0,1.58,0.83,1.58,2.47V37.51z"/>
	<polygon class="st0" points="56.55,40.58 57.34,40.58 57.34,34.75 59.23,34.75 59.23,34.04 54.67,34.04 54.67,34.75 56.55,34.75 	
		"/>
	<path class="st0" d="M64.77,34.04h-0.81v4.45c0,0.97-0.43,1.49-1.5,1.49c-1.07,0-1.5-0.52-1.5-1.49v-4.45h-0.8v4.37
		c0,1.23,0.53,2.27,2.3,2.27c1.77,0,2.31-1.04,2.31-2.27V34.04z"/>
	<polygon class="st0" points="67.04,34.04 66.24,34.04 66.24,40.58 69.78,40.58 69.78,39.87 67.04,39.87 	"/>
	<path class="st0" d="M74.07,38.1h-2.16l1.07-3.31L74.07,38.1z M75.75,40.58l-2.27-6.54h-0.93l-2.25,6.54h0.81l0.59-1.83h2.59
		l0.61,1.83H75.75z"/>
	<path class="st0" d="M79.01,34.64c0.41,0,1.08,0.09,1.51,0.21l0.05-0.73c-0.43-0.1-1.05-0.18-1.61-0.18
		c-2.08,0-2.39,1.12-2.39,3.15v0.46c0,1.95,0.18,3.14,2.46,3.14c0.55,0,1.19-0.08,1.54-0.18l-0.05-0.71
		c-0.43,0.12-1.06,0.19-1.47,0.19c-1.54,0-1.66-0.57-1.66-2.5v-0.36C77.39,35.25,77.54,34.64,79.01,34.64"/>
	<rect x="81.8" y="34.04" class="st0" width="0.81" height="6.54"/>
	<path class="st0" d="M85.84,33.62l1.71-0.78l-0.04-0.73l-1.81,0.95L85.84,33.62z M88.84,37.08c0-1.95-0.33-3.15-2.4-3.15
		c-2.07,0-2.4,1.19-2.4,3.15v0.46c0,1.95,0.33,3.14,2.4,3.14c2.07,0,2.4-1.19,2.4-3.14V37.08z M88.02,37.51
		c0,1.63-0.07,2.47-1.58,2.47c-1.51,0-1.58-0.83-1.58-2.47v-0.4c0-1.64,0.07-2.47,1.58-2.47c1.51,0,1.58,0.83,1.58,2.47V37.51z"/>
	<polygon class="st0" points="93.96,40.58 94.89,40.58 94.89,34.04 94.1,34.04 94.1,39.35 91.17,34.04 90.24,34.04 90.24,40.58 
		91.02,40.58 91.02,35.33 	"/>
	<polygon class="st0" points="98.72,40.58 102.46,40.58 102.46,39.87 99.52,39.87 99.52,37.58 102.14,37.58 102.14,36.87 
		99.52,36.87 99.52,34.75 102.45,34.75 102.45,34.04 98.72,34.04 	"/>
	<rect x="106.1" y="34.04" class="st0" width="0.8" height="6.54"/>
	<polygon class="st0" points="114.19,40.58 113.93,34.04 113.06,34.04 111.32,38.6 109.58,34.04 108.71,34.04 108.45,40.58 
		109.25,40.58 109.43,35.56 110.91,39.55 111.72,39.55 113.21,35.56 113.38,40.58 	"/>
	<path class="st0" d="M119.03,36.09c0,0.93-0.09,1.37-1.09,1.37h-1.44v-2.71h1.44C118.79,34.75,119.03,34.97,119.03,36.09
		 M115.7,40.58h0.8v-2.41h1.56c1.51,0,1.78-0.7,1.78-2.09c0-1.34-0.24-2.05-1.8-2.05h-2.34V40.58z"/>
	<path class="st0" d="M124.35,36.04c0,0.98-0.21,1.29-0.99,1.29h-1.53v-2.58h1.55C124.09,34.75,124.35,34.93,124.35,36.04
		 M124.79,40.58h0.91l-1.6-2.61c0.84-0.2,1.05-0.85,1.05-1.93c0-1.19-0.24-2-1.69-2h-2.44v6.54h0.8v-2.55h1.4L124.79,40.58z"/>
	<polygon class="st0" points="126.74,40.58 130.48,40.58 130.48,39.87 127.54,39.87 127.54,37.58 130.16,37.58 130.16,36.87 
		127.54,36.87 127.54,34.75 130.47,34.75 130.47,34.04 126.74,34.04 	"/>
	<path class="st0" d="M135.59,38.82c0-1.22-0.45-1.52-1.69-1.86c-1.11-0.3-1.49-0.39-1.49-1.27c0-0.72,0.28-1.05,1.31-1.05
		c0.56,0,1.17,0.11,1.63,0.24l0.07-0.75c-0.47-0.11-1.13-0.19-1.7-0.19c-1.71,0-2.12,0.76-2.12,1.94c0,1.12,0.58,1.4,1.66,1.67
		c1.13,0.3,1.52,0.4,1.52,1.36c0,0.78-0.38,1.07-1.35,1.07c-0.58,0-1.25-0.12-1.75-0.3l-0.09,0.75c0.52,0.15,1.2,0.26,1.82,0.26
		C135.12,40.7,135.59,39.98,135.59,38.82"/>
	<rect x="136.92" y="34.04" class="st0" width="0.81" height="6.54"/>
	<path class="st0" d="M140.96,33.62l1.71-0.78l-0.04-0.73l-1.81,0.95L140.96,33.62z M143.96,37.08c0-1.95-0.33-3.15-2.4-3.15
		c-2.08,0-2.4,1.19-2.4,3.15v0.46c0,1.95,0.32,3.14,2.4,3.14c2.07,0,2.4-1.19,2.4-3.14V37.08z M143.14,37.51
		c0,1.63-0.07,2.47-1.58,2.47c-1.52,0-1.58-0.83-1.58-2.47v-0.4c0-1.64,0.06-2.47,1.58-2.47c1.51,0,1.58,0.83,1.58,2.47V37.51z"/>
	<polygon class="st0" points="149.07,40.58 150,40.58 150,34.04 149.22,34.04 149.22,39.35 146.28,34.04 145.35,34.04 145.35,40.58 
		146.13,40.58 146.13,35.33 	"/>
</g>
</svg>
