<?xml version="1.0" encoding="utf-8"?>
<!-- Generator: Adobe Illustrator 27.7.0, SVG Export Plug-In . SVG Version: 6.00 Build 0)  -->
<svg version="1.1" id="Capa_1" xmlns="http://www.w3.org/2000/svg" xmlns:xlink="http://www.w3.org/1999/xlink" x="0px" y="0px"
	 viewBox="0 0 232 40" style="enable-background:new 0 0 232 40;" xml:space="preserve">
<style type="text/css">
	.st0{fill:#FFFFFF;}
	.st1{clip-path:url(#SVGID_00000169534947974937335730000002168642625479562421_);fill:#FFFFFF;}
</style>
<g>
	<g>
		<g>
			<g>
				<path class="st0" d="M19.74,14.08c-1.78-2.18-4.91-3.65-7.76-3.65c-5.76,0-10.52,4.97-10.52,10.64c0,2.7,1.17,5.24,3.1,7.14
					c1.93,1.84,4.69,3.19,7.42,3.19c2.67,0,6.04-1.44,7.76-3.52v2.02c-2.18,1.81-4.84,2.88-7.7,2.88C5.61,32.78,0,27.42,0,20.95
					C0,14.39,5.52,9.05,12.08,9.05c2.79,0,5.61,1.1,7.66,3.01V14.08z"/>
				<path class="st0" d="M53.01,17.28c-0.07,4.13-0.38,7.65-2.89,11.17c-2.78,3.86-6.94,5.55-11.66,5.55
					c-8.89,0-15.07-6.04-15.07-14.93c0-9.19,6.22-15.22,15.34-15.22c5.81,0,10.31,2.63,12.75,7.91L44.5,14.7
					c-1.01-2.7-3.15-4.5-6.11-4.5c-4.84,0-7.35,4.61-7.35,8.93c0,4.39,2.63,8.85,7.46,8.85c3.19,0,5.63-1.65,5.93-4.91h-6v-5.77
					H53.01z"/>
				<path class="st0" d="M59.82,24.87l-3.1,7.6h-1.5l9.69-23.88l9.66,23.88h-1.5l-3.1-7.6H59.82z M64.91,12.33l-4.54,11.16h9.04
					L64.91,12.33z"/>
				<path class="st0" d="M95.57,14.08c-1.78-2.18-4.91-3.65-7.76-3.65c-5.76,0-10.52,4.97-10.52,10.64c0,2.7,1.17,5.24,3.1,7.14
					c1.93,1.84,4.69,3.19,7.42,3.19c2.67,0,6.04-1.44,7.76-3.52v2.02c-2.18,1.81-4.84,2.88-7.7,2.88c-6.44,0-12.05-5.36-12.05-11.84
					c0-6.56,5.52-11.89,12.08-11.89c2.79,0,5.61,1.1,7.66,3.01V14.08z"/>
			</g>
		</g>
	</g>
	<path class="st0" d="M136.85,16.83c-0.36-0.43-0.98-0.72-1.55-0.72c-1.15,0-2.1,0.99-2.1,2.11c0,0.54,0.23,1.04,0.62,1.42
		c0.39,0.37,0.94,0.63,1.48,0.63c0.53,0,1.21-0.29,1.55-0.7v0.4c-0.43,0.36-0.97,0.57-1.54,0.57c-1.29,0-2.41-1.07-2.41-2.35
		c0-1.3,1.1-2.36,2.41-2.36c0.56,0,1.12,0.22,1.53,0.6V16.83z"/>
	<path class="st0" d="M138,16.16v1.67h1.86v0.27H138v2.1h1.91v0.27h-2.2v-4.59h2.2v0.27H138z"/>
	<path class="st0" d="M144.97,20.63l-3.87-4.1v3.95h-0.29v-4.66l3.87,4.07v-4.01h0.29V20.63z"/>
	<path class="st0" d="M146.99,20.48h-0.29v-4.32h-1.19v-0.27h2.68v0.27h-1.19V20.48z"/>
	<path class="st0" d="M151,20.48h-0.34l-1.51-2.18h-0.15v2.18h-0.29v-4.59h0.58c0.37,0,0.74,0.01,1.05,0.23
		c0.33,0.23,0.47,0.6,0.47,0.99c0,0.8-0.56,1.21-1.32,1.2L151,20.48z M149.39,18.03c0.29,0,0.58-0.01,0.81-0.21
		c0.22-0.18,0.32-0.45,0.32-0.72c0-0.34-0.16-0.68-0.49-0.83c-0.24-0.12-0.56-0.1-0.83-0.1h-0.19v1.87H149.39z"/>
	<path class="st0" d="M156.22,18.19c0,1.29-1.1,2.36-2.39,2.36s-2.39-1.07-2.39-2.36c0-1.29,1.09-2.36,2.39-2.36
		C155.12,15.83,156.22,16.89,156.22,18.19z M151.72,18.19c0,1.13,0.95,2.08,2.1,2.08c1.14,0,2.1-0.96,2.1-2.08
		c0-1.13-0.96-2.08-2.1-2.08C152.67,16.1,151.72,17.05,151.72,18.19z"/>
	<path class="st0" d="M163.16,18.27c0.01,0.58-0.07,1.08-0.48,1.53c-0.44,0.48-1.1,0.74-1.75,0.74c-1.28,0-2.37-1.07-2.37-2.34
		c0-1.32,1.08-2.38,2.41-2.38c0.84,0,1.52,0.41,2,1.07l-0.24,0.19c-0.41-0.61-1.03-0.99-1.78-0.99c-1.13,0-2.09,0.98-2.09,2.08
		c0,1.13,0.94,2.08,2.09,2.08c0.5,0,0.98-0.2,1.36-0.51c0.4-0.34,0.54-0.72,0.56-1.22h-1.65v-0.27H163.16z"/>
	<path class="st0" d="M164.32,18.97l-0.62,1.51h-0.3l1.93-4.75l1.93,4.75h-0.3l-0.62-1.51H164.32z M165.34,16.48l-0.91,2.22h1.81
		L165.34,16.48z"/>
	<path class="st0" d="M168.09,20.21h1.18v0.27h-1.47v-4.59h0.29V20.21z"/>
	<path class="st0" d="M170.09,16.16v1.67h1.86v0.27h-1.86v2.1H172v0.27h-2.2v-4.59h2.2v0.27H170.09z"/>
	<path class="st0" d="M177.23,18.27c0.01,0.58-0.07,1.08-0.48,1.53c-0.44,0.48-1.1,0.74-1.75,0.74c-1.28,0-2.37-1.07-2.37-2.34
		c0-1.32,1.08-2.38,2.41-2.38c0.84,0,1.52,0.41,2,1.07l-0.24,0.19c-0.41-0.61-1.03-0.99-1.78-0.99c-1.13,0-2.09,0.98-2.09,2.08
		c0,1.13,0.94,2.08,2.09,2.08c0.5,0,0.98-0.2,1.36-0.51c0.4-0.34,0.54-0.72,0.56-1.22h-1.65v-0.27H177.23z"/>
	<path class="st0" d="M182.45,18.19c0,1.29-1.1,2.36-2.39,2.36c-1.3,0-2.39-1.07-2.39-2.36c0-1.29,1.09-2.36,2.39-2.36
		C181.36,15.83,182.45,16.89,182.45,18.19z M177.96,18.19c0,1.13,0.95,2.08,2.1,2.08c1.14,0,2.1-0.96,2.1-2.08
		c0-1.13-0.96-2.08-2.1-2.08C178.91,16.1,177.96,17.05,177.96,18.19z"/>
	<path class="st0" d="M133.18,23.2h0.83c0.67,0,1.21,0.11,1.71,0.58c0.48,0.45,0.73,1.07,0.73,1.72c0,0.63-0.25,1.24-0.71,1.68
		c-0.51,0.49-1.05,0.61-1.74,0.61h-0.83V23.2z M134.01,27.52c0.61,0,1.11-0.12,1.55-0.55c0.39-0.39,0.61-0.91,0.61-1.46
		c0-0.59-0.23-1.13-0.67-1.53c-0.44-0.4-0.92-0.5-1.49-0.5h-0.53v4.05H134.01z"/>
	<path class="st0" d="M137.46,23.47v1.67h1.86v0.27h-1.86v2.1h1.91v0.27h-2.2V23.2h2.2v0.27H137.46z"/>
	<path class="st0" d="M142.62,26.28l-0.62,1.51h-0.3l1.93-4.75l1.93,4.75h-0.3l-0.62-1.51H142.62z M143.64,23.79l-0.91,2.22h1.81
		L143.64,23.79z"/>
	<path class="st0" d="M148.38,27.79h-0.34l-1.51-2.18h-0.15v2.18h-0.29V23.2h0.58c0.37,0,0.74,0.01,1.05,0.23
		c0.33,0.23,0.47,0.6,0.47,0.99c0,0.8-0.56,1.21-1.32,1.2L148.38,27.79z M146.76,25.34c0.29,0,0.58-0.01,0.81-0.21
		c0.22-0.18,0.32-0.45,0.32-0.72c0-0.34-0.16-0.68-0.49-0.83c-0.24-0.12-0.56-0.1-0.83-0.1h-0.19v1.87H146.76z"/>
	<path class="st0" d="M149.99,27.79h-0.29v-4.32h-1.19V23.2h2.68v0.27h-1.19V27.79z"/>
	<path class="st0" d="M152.01,23.47v1.67h1.86v0.27h-1.86v2.1h1.91v0.27h-2.2V23.2h2.2v0.27H152.01z"/>
	<path class="st0" d="M136.85,31.45c-0.36-0.43-0.98-0.72-1.55-0.72c-1.15,0-2.1,0.99-2.1,2.11c0,0.54,0.23,1.04,0.62,1.42
		c0.39,0.37,0.94,0.63,1.48,0.63c0.53,0,1.21-0.29,1.55-0.7v0.4c-0.43,0.36-0.97,0.57-1.54,0.57c-1.29,0-2.41-1.07-2.41-2.35
		c0-1.3,1.1-2.36,2.41-2.36c0.56,0,1.12,0.22,1.53,0.6V31.45z"/>
	<path class="st0" d="M142.21,32.81c0,1.29-1.1,2.36-2.39,2.36s-2.39-1.07-2.39-2.36c0-1.29,1.09-2.36,2.39-2.36
		C141.12,30.45,142.21,31.51,142.21,32.81z M137.72,32.81c0,1.13,0.95,2.08,2.1,2.08c1.14,0,2.1-0.96,2.1-2.08
		c0-1.13-0.96-2.08-2.1-2.08C138.67,30.72,137.72,31.67,137.72,32.81z"/>
	<path class="st0" d="M147.1,35.26l-3.87-4.1v3.95h-0.29v-4.66l3.87,4.07v-4.01h0.29V35.26z"/>
	<path class="st0" d="M149.12,35.1h-0.29v-4.32h-1.19v-0.27h2.68v0.27h-1.19V35.1z"/>
	<path class="st0" d="M151.14,30.78v1.67H153v0.27h-1.86v2.1h1.91v0.27h-2.2v-4.59h2.2v0.27H151.14z"/>
	<path class="st0" d="M157.81,31.3h-0.01l-1.61,3.95l-1.6-3.95h-0.01l-0.79,3.8h-0.28l0.99-4.75l1.7,4.18l1.7-4.18l0.99,4.75h-0.28
		L157.81,31.3z"/>
	<path class="st0" d="M159.73,35.1h-0.29v-4.59h0.81c0.36,0,0.71,0.02,1,0.27c0.28,0.24,0.42,0.59,0.42,0.94
		c0,0.33-0.13,0.69-0.39,0.91c-0.28,0.24-0.67,0.29-1.03,0.29h-0.52V35.1z M160.26,32.65c0.3,0,0.57-0.04,0.81-0.25
		c0.2-0.18,0.3-0.42,0.3-0.69c0-0.29-0.12-0.57-0.35-0.74c-0.23-0.18-0.53-0.18-0.81-0.18h-0.48v1.86H160.26z"/>
	<path class="st0" d="M166.83,32.81c0,1.29-1.1,2.36-2.39,2.36c-1.3,0-2.39-1.07-2.39-2.36c0-1.29,1.09-2.36,2.39-2.36
		C165.74,30.45,166.83,31.51,166.83,32.81z M162.34,32.81c0,1.13,0.95,2.08,2.1,2.08c1.14,0,2.1-0.96,2.1-2.08
		c0-1.13-0.96-2.08-2.1-2.08C163.29,30.72,162.34,31.67,162.34,32.81z"/>
	<path class="st0" d="M169.83,35.1h-0.34l-1.51-2.18h-0.15v2.18h-0.29v-4.59h0.58c0.37,0,0.74,0.01,1.05,0.23
		c0.33,0.23,0.47,0.6,0.47,0.99c0,0.8-0.56,1.21-1.32,1.2L169.83,35.1z M168.22,32.65c0.29,0,0.58-0.01,0.81-0.21
		c0.22-0.18,0.32-0.45,0.32-0.72c0-0.34-0.16-0.68-0.49-0.83c-0.24-0.12-0.56-0.1-0.83-0.1h-0.19v1.87H168.22z"/>
	<path class="st0" d="M170.99,33.59l-0.62,1.51h-0.3l1.93-4.75l1.93,4.75h-0.3l-0.62-1.51H170.99z M172,31.1l-0.91,2.22h1.81
		L172,31.1z M172.49,29.09l-0.76,0.88l-0.23-0.1l0.62-0.9L172.49,29.09z"/>
	<path class="st0" d="M178.63,35.26l-3.87-4.1v3.95h-0.29v-4.66l3.87,4.07v-4.01h0.29V35.26z"/>
	<path class="st0" d="M179.91,30.78v1.67h1.86v0.27h-1.86v2.1h1.91v0.27h-2.2v-4.59h2.2v0.27H179.91z"/>
	<path class="st0" d="M183.17,33.59l-0.62,1.51h-0.3l1.93-4.75l1.93,4.75h-0.3l-0.62-1.51H183.17z M184.19,31.1l-0.91,2.22h1.81
		L184.19,31.1z"/>
	<path class="st0" d="M122.8,10.6l-0.94,2.2h-0.95l3.59-8.11l3.5,8.11h-0.96l-0.92-2.2H122.8z M124.49,6.69l-1.33,3.1h2.63
		L124.49,6.69z"/>
	<path class="st0" d="M128.89,4.72l6.07,6.33v-6h0.87v8.09l-6.07-6.32v5.97h-0.87V4.72z"/>
	<path class="st0" d="M138.32,12.79h-0.87V5.05h0.87V12.79z"/>
	<path class="st0" d="M142.33,10.96l2.22-5.9h0.94l-3.16,8.2l-3.16-8.2h0.94L142.33,10.96z"/>
	<path class="st0" d="M146.33,5.05h4.03v0.8h-3.17v2.3h3.07v0.8h-3.07v3.04h3.17v0.8h-4.03V5.05z"/>
	<path class="st0" d="M152.7,12.79h-0.87V5.05h1.12c1.48,0,2.85,0.39,2.85,2.14c0,1.19-0.75,2.03-1.95,2.14l2.48,3.47h-1.06
		l-2.35-3.4h-0.22V12.79z M152.7,8.63h0.27c0.98,0,1.97-0.18,1.97-1.38c0-1.27-0.94-1.4-1.98-1.4h-0.26V8.63z"/>
	<path class="st0" d="M160.95,6.56c-0.31-0.53-0.68-0.84-1.34-0.84c-0.69,0-1.29,0.49-1.29,1.2c0,0.67,0.69,0.97,1.22,1.21
		l0.52,0.23c1.01,0.44,1.87,0.94,1.87,2.18c0,1.35-1.09,2.39-2.44,2.39c-1.25,0-2.18-0.8-2.42-2l0.85-0.24
		c0.11,0.79,0.72,1.44,1.56,1.44c0.84,0,1.6-0.64,1.6-1.51c0-0.9-0.71-1.21-1.43-1.54l-0.47-0.21c-0.91-0.41-1.69-0.87-1.69-1.98
		c0-1.2,1.02-1.97,2.18-1.97c0.87,0,1.6,0.44,2.01,1.2L160.95,6.56z"/>
	<path class="st0" d="M164.34,10.6l-0.94,2.2h-0.95l3.59-8.11l3.5,8.11h-0.96l-0.92-2.2H164.34z M166.03,6.69l-1.33,3.1h2.63
		L166.03,6.69z"/>
	<path class="st0" d="M171.25,12.79h-0.87V5.05h1.12c1.48,0,2.85,0.39,2.85,2.14c0,1.19-0.75,2.03-1.95,2.14l2.48,3.47h-1.06
		l-2.35-3.4h-0.22V12.79z M171.25,8.63h0.27c0.98,0,1.97-0.18,1.97-1.38c0-1.27-0.94-1.4-1.98-1.4h-0.26V8.63z"/>
	<path class="st0" d="M176.86,12.79h-0.87V5.05h0.87V12.79z"/>
	<path class="st0" d="M186.15,8.93c0,2.23-1.84,4-4.05,4c-2.22,0-4.05-1.77-4.05-4c0-2.22,1.84-4.02,4.05-4.02
		C184.31,4.92,186.15,6.71,186.15,8.93z M178.91,8.92c0,1.75,1.42,3.2,3.19,3.2s3.19-1.46,3.19-3.2c0-1.76-1.4-3.2-3.19-3.2
		S178.91,7.17,178.91,8.92z"/>
	<g>
		<g>
			<g>
				<defs>
					<rect id="SVGID_1_" x="204.01" y="0" width="27.99" height="39.98"/>
				</defs>
				<clipPath id="SVGID_00000126286132247631096890000013561606246117031335_">
					<use xlink:href="#SVGID_1_"  style="overflow:visible;"/>
				</clipPath>
				<path style="clip-path:url(#SVGID_00000126286132247631096890000013561606246117031335_);fill:#FFFFFF;" d="M204.01,39.98H232V0
					h-27.99V39.98z M217.01,3.33h0.67V2.66h0.67v0.67h0.67V4h-0.67v0.67h-0.67V4h-0.67V3.33z M212.01,31.98h-1.33v1.33h-1.33v-1.33
					h-1.33v-1.33h1.33v-1.33h1.33v1.33h1.33V31.98z M212.01,23.98h-1.33v1.33h-1.33v-1.33h-1.33v-1.33h1.33v-1.33h1.33v1.33h1.33
					V23.98z M212.01,15.99h-1.33v1.33h-1.33v-1.33h-1.33v-1.33h1.33v-1.33h1.33v1.33h1.33V15.99z M218.7,29.93
					c-0.02,0.24-0.03,0.48-0.03,0.72c0,1.98,0.62,3.82,1.67,5.33h-4.68c1.05-1.51,1.67-3.35,1.67-5.33c0-0.24-0.01-0.48-0.03-0.72
					c-2.25-0.34-3.97-2.27-3.97-4.61h9.33C222.67,27.66,220.95,29.6,218.7,29.93 M220,14.66v1.33h-1.33v1.33h-1.33v-1.33h-1.33
					v-1.33h1.33v-1.33h1.33v1.33H220z M218.01,18.66c1.47,0,2.67,1.19,2.67,2.66c0,1.47-1.19,2.67-2.67,2.67
					c-1.47,0-2.67-1.19-2.67-2.67C215.34,19.85,216.53,18.66,218.01,18.66 M222.67,11.66h-9.33v-1h9.33V11.66z M223.61,8.96
					l-0.49,0.7h-1.24l0.89-1.29c0.15-0.22,0.2-0.51,0.2-0.69c0-0.31-0.1-0.58-0.3-0.78c-0.24-0.25-0.54-0.37-0.88-0.37
					c-0.15,0-0.25,0.01-0.25,0.01l0,0c0.07,0.26,0.11,0.52,0.11,0.76c0,0.43-0.05,0.8-0.28,1.19l-0.69,1.17h-1.21l0.99-1.68
					c0.09-0.16,0.16-0.46,0.16-0.69c0-0.34-0.11-0.62-0.33-0.85c-0.26-0.27-0.55-0.4-0.88-0.4c-0.41,0-0.71,0.12-0.91,0.36v3.24h-1
					V6.41c-0.2-0.24-0.5-0.36-0.91-0.36c-0.33,0-0.62,0.13-0.88,0.4c-0.22,0.23-0.33,0.5-0.33,0.85c0,0.23,0.07,0.53,0.16,0.69
					l0.99,1.68h-1.21l-0.69-1.17c-0.23-0.39-0.28-0.76-0.28-1.19c0-0.24,0.04-0.5,0.12-0.76l0,0c0,0-0.1-0.01-0.25-0.01
					c-0.34,0-0.64,0.13-0.88,0.37c-0.2,0.21-0.3,0.47-0.3,0.78c0,0.18,0.05,0.47,0.2,0.69l0.89,1.29h-1.25l-0.49-0.7
					c-0.27-0.38-0.39-0.79-0.39-1.27c0-0.62,0.22-1.15,0.65-1.54c0.43-0.45,0.96-0.67,1.56-0.67c0.26,0,0.54,0.05,0.83,0.15
					c0.02-0.03,0.05-0.05,0.07-0.07c0.39-0.37,0.89-0.56,1.48-0.56c0.51,0,0.98,0.16,1.41,0.46c0.43-0.31,0.9-0.46,1.41-0.46
					c0.59,0,1.09,0.19,1.48,0.56c0.03,0.02,0.05,0.05,0.07,0.07c0.29-0.1,0.57-0.15,0.83-0.15c0.6,0,1.13,0.22,1.56,0.67
					c0.43,0.4,0.65,0.92,0.65,1.54C224,8.17,223.88,8.58,223.61,8.96 M228,31.98h-1.33v1.33h-1.33v-1.33H224v-1.33h1.33v-1.33h1.33
					v1.33H228V31.98z M228,23.98h-1.33v1.33h-1.33v-1.33H224v-1.33h1.33v-1.33h1.33v1.33H228V23.98z M228,15.99h-1.33v1.33h-1.33
					v-1.33H224v-1.33h1.33v-1.33h1.33v1.33H228V15.99z"/>
			</g>
			<rect x="194.65" y="0.02" class="st0" width="1.35" height="39.96"/>
		</g>
	</g>
	<g>
		<g>
			<path class="st0" d="M128,28.4c0,5.55-2.94,11.61-8.09,11.61c-5.15,0-8.09-6.06-8.09-11.61c0-4.62,2.37-11.67,8.09-11.67
				C125.64,16.73,128,23.77,128,28.4z M114.34,28.52c0.06,3.16,1.41,9.16,5.57,9.16c4.17,0,5.52-6,5.58-9.16
				c0.06-3.19-1.32-9.46-5.58-9.46C115.65,19.06,114.28,25.32,114.34,28.52z"/>
		</g>
		<path class="st0" d="M110.82,9.91c2.4-0.09,4.47-0.81,4.47-3.64c0-2.39-1.59-3.94-3.96-3.94c-2.25,0-3.51,1.49-3.72,3.61h-2.49
			c0.36-3.58,2.55-5.94,6.26-5.94c3.63,0,6.41,2.45,6.41,6.15c0,2-1.08,4-2.91,4.92c2.19,0.98,3.24,3.22,3.24,5.52
			c0,3.94-3.15,6.68-7.01,6.68c-3.66,0-6.65-2.48-6.71-6.24h2.46c0.12,2.3,2.07,3.91,4.35,3.91c2.52,0,4.4-2.03,4.4-4.51
			c0-2.86-2.04-4.29-4.8-4.21V9.91z"/>
	</g>
</g>
</svg>
