<svg fill="white" xmlns="http://www.w3.org/2000/svg" viewBox="0 0 267.24 178.83"><path d="M445.91,308.52l-7.67-19.73H395.76l-7.53,19.73H370.56l32.6-82.88-21.64-2.74v-13h72.2v13l-21.51,2.74,32.88,82.88ZM401.79,273h30.42L417.14,230.7h-.28L401.79,273Z" transform="translate(-286.99 -208.51)"/><path d="M370.65,259.2c0,31.38-22,49.32-49.45,49.32h-34V209.88h34c27.4,0,49.45,18,49.45,49.32ZM305,225.64v67.13H321.2c17.12,0,31.64-10.42,31.64-33.57,0-21.92-14.38-33.56-31.64-33.56Z" transform="translate(-286.99 -208.51)"/><path d="M509,255.09h45.21v35.07c-8.63,12.33-23,19.73-40.41,19.73-29.6,0-50.69-19.59-50.69-50.69s20.55-50.69,49.73-50.69c18.36,0,34,9,41.37,25.07l-16.3,6.72c-4.39-9.73-13.29-16-25.07-16-20.83,0-31.92,15.07-31.92,34.93s11.64,34.94,32.88,34.94c9.31,0,17.53-3.15,22.6-8.5V270.85H509V255.09Z" transform="translate(-286.99 -208.51)"/><path d="M303,365.93h-2.78v8.95h-.06a6.14,6.14,0,0,0-5.34-2.79c-4,0-7.07,3-7.07,7.65s3.11,7.6,7.07,7.6a6,6,0,0,0,5.48-2.9h.06l.3,2.61H303V365.93Zm-7.65,8.62c2.9,0,4.87,2.2,4.87,5.19s-2,5.14-4.87,5.14c-3.08,0-4.81-2.29-4.81-5.14s1.73-5.19,4.81-5.19Zm22.75,7.8a4.46,4.46,0,0,1-4.34,2.67,4.55,4.55,0,0,1-4.72-4.48h11.76a8.2,8.2,0,0,0,.09-1.32c0-4.7-3.23-7.13-7.1-7.13a7.63,7.63,0,1,0,6.86,11.23l-2.55-1Zm-9-3.87a4.55,4.55,0,0,1,4.66-4.07,4,4,0,0,1,4.31,4.07Zm27.52-10.09c4.17,0,7.45,3.29,7.45,8.1s-3.28,8.09-7.45,8.09H332.4V368.39Zm0-2.46h-7v21.12h7c5.75,0,10.24-4.29,10.24-10.56s-4.49-10.56-10.24-10.56Zm24.81,16.42a4.46,4.46,0,0,1-4.34,2.67,4.54,4.54,0,0,1-4.72-4.48h11.76a8.2,8.2,0,0,0,.09-1.32c0-4.7-3.23-7.13-7.1-7.13a7.63,7.63,0,0,0,0,15.25,7.44,7.44,0,0,0,6.86-4l-2.55-1Zm-9-3.87a4.55,4.55,0,0,1,4.66-4.07,4.05,4.05,0,0,1,4.31,4.07Zm14.25,4.84c.61,2.11,2.61,4,6.36,4,3.49,0,5.78-1.61,5.78-4.55s-2.32-3.84-4.81-4.31c-2.11-.41-4.14-.58-4.14-2.17,0-1.26,1.27-1.9,2.79-1.9a3.07,3.07,0,0,1,3.26,2.81l2.55-.91c-.47-2.14-2.17-4.22-5.81-4.22-3,0-5.57,1.44-5.57,4.25,0,2.61,2.2,3.7,5,4.23,2.25.46,4,.67,4,2.34,0,1.26-1,2.11-2.93,2.11a3.69,3.69,0,0,1-3.9-2.67l-2.52,1Zm26.45-1a4.46,4.46,0,0,1-4.34,2.67,4.54,4.54,0,0,1-4.72-4.48h11.76a8.2,8.2,0,0,0,.09-1.32c0-4.7-3.23-7.13-7.1-7.13a7.63,7.63,0,0,0,0,15.25,7.44,7.44,0,0,0,6.86-4l-2.55-1Zm-9-3.87a4.55,4.55,0,0,1,4.66-4.07,4.05,4.05,0,0,1,4.31,4.07Zm27.91-.52c0-4-2.23-5.87-5.16-5.87a5.46,5.46,0,0,0-5,2.9h-.06l-.29-2.61h-2.35v14.67H402v-8.36a4.28,4.28,0,0,1,4.31-4.14c2.08,0,3,1.47,3,3.43v9.07h2.78V378ZM407.65,370c2.19,0,2.81-1.73,2.81-3.38H408.7c0,.94-.32,1.47-1.05,1.47-1.12,0-2.06-2.05-4-2.05s-2.91,1.55-2.91,3.37h1.76c0-.79.24-1.47,1-1.47,1.17,0,1.82,2.06,4.08,2.06Zm15.16,4.51a4.91,4.91,0,0,1,5,5.19,5,5,0,1,1-10,0,4.91,4.91,0,0,1,5-5.19Zm0-2.46a7.63,7.63,0,1,0,7.77,7.65,7.49,7.49,0,0,0-7.77-7.65Z" transform="translate(-286.99 -208.51)"/><path d="M306.64,353.41l-8.39-21.12h-3L287,353.41h2.76l1.87-4.81h10.09l1.94,4.81Zm-10-18h.06l4.07,10.74h-8.18l4.05-10.74Zm11.67,14.28c.62,2.11,2.61,4,6.36,4,3.49,0,5.78-1.61,5.78-4.54s-2.32-3.85-4.81-4.32c-2.11-.41-4.13-.58-4.13-2.17,0-1.26,1.26-1.9,2.78-1.9a3.07,3.07,0,0,1,3.26,2.81l2.55-.91c-.47-2.14-2.17-4.22-5.81-4.22-3,0-5.57,1.44-5.57,4.25,0,2.61,2.2,3.7,5,4.23,2.25.47,4,.67,4,2.34,0,1.26-1,2.11-2.93,2.11a3.7,3.7,0,0,1-3.9-2.66l-2.52,1Zm22.34-8.76a4.91,4.91,0,0,1,5,5.19,5,5,0,1,1-10,0,4.9,4.9,0,0,1,5-5.19Zm0-2.47a7.63,7.63,0,1,0,7.78,7.66,7.49,7.49,0,0,0-7.78-7.66Zm22,10.29a4.46,4.46,0,0,1-4.22,2.5c-2.79,0-4.78-2-4.78-5.16s1.87-5.16,4.75-5.16a4.17,4.17,0,0,1,4,2.69l2.58-1a6.7,6.7,0,0,0-6.45-4.2,7.63,7.63,0,1,0,6.72,11.23l-2.64-.94Zm8.27,4.67V338.74h-2.79v14.67Zm-3.38-18.62a2,2,0,1,0,2-2,2,2,0,0,0-2,2Zm16.84,18.62h2.34v-8.8c0-4.69-3-6.16-6.18-6.16-3.44,0-5.75,1.91-6.4,4.22l2.58.91c.41-1.58,1.56-2.72,3.84-2.72s3.38,1.17,3.38,2.93c0,.44-.27.76-1,.76-5,0-8.83.79-8.83,4.78,0,3.17,2.44,4.37,5.13,4.37a5.49,5.49,0,0,0,4.76-2.2h.05l.3,1.91Zm-7.45-4.14c0-2,1.82-2.64,4.92-2.64a6.14,6.14,0,0,0,2.09-.23v1.38c0,2.55-2.06,3.6-4.28,3.6-1.62,0-2.73-.55-2.73-2.11Zm24.54-.53a4.45,4.45,0,0,1-4.22,2.5c-2.79,0-4.78-2-4.78-5.16s1.88-5.16,4.75-5.16a4.19,4.19,0,0,1,4,2.69l2.58-1a6.7,6.7,0,0,0-6.45-4.2,7.63,7.63,0,1,0,6.71,11.23l-2.64-.94Zm8.27,4.67V338.74H397v14.67Zm-3.37-18.62a2,2,0,1,0,2-2,2,2,0,0,0-2,2Zm14.37,6.13a4.91,4.91,0,0,1,5,5.19,5,5,0,1,1-10,0,4.91,4.91,0,0,1,5-5.19Zm0-2.47a7.63,7.63,0,1,0,7.77,7.66,7.49,7.49,0,0,0-7.77-7.66Zm-2.29-2.05h2.26l3.22-4.11h-3.07l-2.41,4.11Zm26.19,7.92c0-4-2.23-5.87-5.16-5.87a5.48,5.48,0,0,0-5.05,2.9h-.06l-.29-2.61h-2.35v14.67h2.79v-8.36a4.28,4.28,0,0,1,4.31-4.13c2.08,0,3,1.46,3,3.43v9.06h2.79v-9.09Zm17.84.32h6.8v3.72a6.94,6.94,0,0,1-5.89,2.88c-4.72,0-7.8-3.49-7.8-8.39s2.9-8.39,7.68-8.39a6.54,6.54,0,0,1,6.19,3.9l2.55-1a9.24,9.24,0,0,0-8.74-5.34c-6,0-10.47,4.28-10.47,10.85s4.4,10.85,10.59,10.85a9.85,9.85,0,0,0,8.68-4.66v-6.86h-9.59v2.46Zm22.79,8.77h2.34v-8.8c0-4.69-3-6.16-6.19-6.16-3.43,0-5.74,1.91-6.39,4.22l2.58.91c.41-1.58,1.56-2.72,3.84-2.72s3.38,1.17,3.38,2.93c0,.44-.27.76-1,.76-5,0-8.83.79-8.83,4.78,0,3.17,2.44,4.37,5.13,4.37a5.47,5.47,0,0,0,4.75-2.2H475l.3,1.91Zm-7.45-4.14c0-2,1.82-2.64,4.92-2.64a6.14,6.14,0,0,0,2.09-.23v1.38c0,2.55-2.06,3.6-4.29,3.6-1.61,0-2.72-.55-2.72-2.11Zm16.33-17h-2.78v21.12h2.78V332.29Zm15.1,16.43a4.47,4.47,0,0,1-4.34,2.66,4.55,4.55,0,0,1-4.72-4.48H502a8,8,0,0,0,.09-1.32c0-4.69-3.23-7.13-7.1-7.13a7.63,7.63,0,0,0,0,15.25,7.43,7.43,0,0,0,6.86-4l-2.55-1Zm-9-3.88a4.55,4.55,0,0,1,4.66-4.07,4,4,0,0,1,4.31,4.07Zm15.84,13.49a9.94,9.94,0,0,0,6.15,1.82c3.58,0,7.48-1.43,7.48-7.12V338.74h-2.34l-.3,2.61H517a6,6,0,0,0-5.48-2.9c-4,0-7.07,3-7.07,7.66s3,7.59,7.07,7.59a6.12,6.12,0,0,0,5.34-2.76h.06v2.17c0,3.52-2.29,4.67-4.7,4.67a7.46,7.46,0,0,1-4.45-1.44l-1.7,2Zm5.95-7.09c-3,0-4.78-2.2-4.78-5.16s1.73-5.16,4.78-5.16,4.9,2.11,4.9,5.16a4.82,4.82,0,0,1-4.9,5.16Zm21.14,2.17h2.35v-8.8c0-4.69-3-6.16-6.19-6.16-3.43,0-5.75,1.91-6.39,4.22l2.58.91c.41-1.58,1.55-2.72,3.84-2.72s3.37,1.17,3.37,2.93c0,.44-.26.76-1,.76-5,0-8.82.79-8.82,4.78,0,3.17,2.43,4.37,5.13,4.37a5.49,5.49,0,0,0,4.75-2.2h.06l.29,1.91Zm-7.45-4.14c0-2,1.82-2.64,4.93-2.64a6.11,6.11,0,0,0,2.08-.23v1.38c0,2.55-2,3.6-4.28,3.6-1.61,0-2.73-.55-2.73-2.11Z" transform="translate(-286.99 -208.51)"/></svg>