<?xml version="1.0" encoding="utf-8"?>
<!-- Generator: Adobe Illustrator 27.7.0, SVG Export Plug-In . SVG Version: 6.00 Build 0)  -->
<svg version="1.1" id="Capa_1" xmlns="http://www.w3.org/2000/svg" xmlns:xlink="http://www.w3.org/1999/xlink" x="0px" y="0px"
	 viewBox="0 0 175 30" style="enable-background:new 0 0 175 30;" xml:space="preserve">
<style type="text/css">
	.st0{fill:#FFFFFF;}
</style>
<g>
	<path class="st0" d="M37.1,29.11h28.21V0.89H37.1V29.11z M66.1,29.9H36.31V0.11H66.1V29.9z"/>
	<polygon class="st0" points="53.51,21.19 53.51,21.19 53.51,8.81 53.51,4.56 48.91,4.56 48.91,25.44 53.51,25.44 	"/>
	<path class="st0" d="M73.39,29.11h28.22V0.89H73.39V29.11z M102.4,29.89H72.61V0.1h29.79V29.89z"/>
	<polygon class="st0" points="82.47,21.19 82.47,21.19 82.47,8.81 82.47,8.81 82.47,4.56 77.87,4.56 77.87,25.44 82.47,25.44 	"/>
	<path class="st0" d="M84.77,4.56h-0.65v4.24h1.06c3.89,0,7.16,1.92,7.16,6.02c0,4.75-3.21,6.37-7.49,6.37h-0.74v4.25h1.27
		c6.22,0,11.73-3.63,11.73-10.38C97.13,7.42,91.5,4.56,84.77,4.56"/>
	<polygon class="st0" points="121.41,16.54 122.97,12.54 121.26,6.67 113.37,24.93 118.19,24.93 119.85,20.72 119.86,20.72 
		121.39,16.54 	"/>
	<polygon class="st0" points="125.57,5.07 121.96,5.07 123.68,10.97 126.08,17.02 122.41,17.02 121.05,20.72 127.56,20.72 
		129.27,24.93 134.21,24.93 	"/>
	<path class="st0" d="M109.68,29.11h28.21V0.89h-28.21V29.11z M138.68,29.89H108.9V0.1h29.79V29.89z"/>
	<path class="st0" d="M155.69,14.44c0.23-3.41,2.59-5.83,5.73-5.83c1.63,0,2.89,0.59,3.76,1.63l3.37-2.75
		c-1.68-2.16-4.49-2.92-6.7-2.92c-6.02,0-10.43,3.84-10.69,9.87H155.69z"/>
	<path class="st0" d="M161.28,21.4c-3.01,0-5.36-2.42-5.59-5.83h-4.54c0.26,6.04,4.68,9.87,10.69,9.87c2.72,0,5.53-1.09,7.18-3.45
		l-3.65-2.72C164.47,20.61,163.04,21.4,161.28,21.4"/>
	<path class="st0" d="M145.97,29.11h28.22V0.89h-28.22V29.11z M174.98,29.9h-29.79V0.11h29.79V29.9z"/>
	<polygon class="st0" points="9.89,21.19 9.89,21.19 9.89,8.81 9.89,4.56 5.29,4.56 5.29,25.44 9.89,25.44 	"/>
	<path class="st0" d="M12.19,4.56h-0.65v4.25h1.06c3.89,0,7.17,1.91,7.17,6.01c0,4.75-3.21,6.37-7.49,6.37h-0.74v4.24h1.27
		c6.22,0,11.73-3.63,11.73-10.38C24.55,7.42,18.91,4.56,12.19,4.56"/>
	<path class="st0" d="M0.81,29.11h28.22V0.89H0.81V29.11z M29.81,29.89H0.02V0.1h29.79V29.89z"/>
</g>
</svg>
