<?xml version="1.0" encoding="utf-8"?>
<!-- Generator: Adobe Illustrator 27.7.0, SVG Export Plug-In . SVG Version: 6.00 Build 0)  -->
<svg version="1.1" id="Capa_1" xmlns="http://www.w3.org/2000/svg" xmlns:xlink="http://www.w3.org/1999/xlink" x="0px" y="0px"
	 viewBox="0 0 58 55" style="enable-background:new 0 0 58 55;" xml:space="preserve">
<style type="text/css">
	.st0{fill:#FFFFFF;}
</style>
<g>
	<path class="st0" d="M19,20.05c0.35,0.61,0.81,1.11,1.36,1.5c0.56,0.39,1.2,0.68,1.92,0.86c0.72,0.19,1.47,0.28,2.25,0.28
		c0.56,0,1.14-0.06,1.75-0.19c0.61-0.13,1.17-0.34,1.67-0.61c0.5-0.28,0.92-0.65,1.25-1.11c0.33-0.46,0.5-1.04,0.5-1.75
		c0-1.19-0.79-2.07-2.36-2.67c-1.58-0.59-3.77-1.18-6.59-1.78c-1.15-0.26-2.27-0.56-3.36-0.92c-0.6-0.19-1.15-0.42-1.67-0.68v4.88
		h2.75C18.48,18.71,18.65,19.44,19,20.05"/>
	<path class="st0" d="M33.16,0.02c0.42,0.31,0.82,0.65,1.18,1.03c0.25,0.26,0.49,0.53,0.71,0.83c0.14,0.18,0.27,0.36,0.4,0.56
		c0.11,0.17,0.22,0.36,0.32,0.55c0.31,0.59,0.56,1.25,0.74,1.98c0,0.01,0,0.01,0,0.01c0,0.01,0,0.01,0,0.02
		c0.14,0.58,0.24,1.2,0.29,1.86h-7.5c-0.07-0.97-0.33-1.73-0.77-2.3c-0.25-0.33-0.57-0.59-0.95-0.78c-0.14-0.07-0.29-0.14-0.44-0.21
		c-0.94-0.4-2.01-0.6-3.22-0.6c-0.28,0-0.57,0.01-0.88,0.04c-0.19,0.01-0.37,0.03-0.56,0.05c-0.52,0.06-0.99,0.18-1.42,0.36
		c-0.03,0.01-0.06,0.03-0.1,0.05c-0.38,0.18-0.71,0.43-0.99,0.75c-0.3,0.35-0.45,0.83-0.45,1.42c0,0.71,0.26,1.28,0.78,1.73
		C20.4,7.43,20.5,7.5,20.6,7.58c0.36,0.26,0.77,0.48,1.25,0.68c0.16,0.06,0.32,0.13,0.48,0.18c0.32,0.11,0.66,0.21,1.02,0.31
		c0.38,0.11,0.78,0.21,1.21,0.3c0.21,0.05,0.42,0.09,0.63,0.14c0.29,0.06,0.58,0.12,0.88,0.19c0.57,0.12,1.15,0.25,1.73,0.38
		c0.22,0.05,0.44,0.1,0.67,0.15c0.23,0.05,0.47,0.11,0.7,0.17c0.91,0.22,1.79,0.48,2.67,0.78c0.53,0.18,1.04,0.39,1.51,0.63
		c0.5,0.25,0.97,0.53,1.41,0.85c0.21,0.15,0.42,0.31,0.61,0.49c0.58,0.51,1.06,1.11,1.45,1.79c0.03,0.05,0.05,0.11,0.08,0.16
		c0.47,0.88,0.7,1.95,0.7,3.21c0,1.89-0.38,3.47-1.14,4.75c-0.18,0.31-0.38,0.6-0.59,0.88c-0.22,0.29-0.45,0.56-0.69,0.82
		c-0.5,0.53-1.07,1-1.69,1.39c-0.88,0.56-1.85,1-2.92,1.32c-0.41,0.12-0.84,0.23-1.28,0.32c-0.39,0.08-0.77,0.14-1.16,0.2
		c-0.43,0.06-0.86,0.12-1.29,0.16c-0.78,0.07-1.57,0.11-2.36,0.11c-1.67,0-3.3-0.17-4.89-0.5c-1.44-0.3-2.71-0.81-3.86-1.47v29.04
		H58V0.02H33.16z"/>
	<path class="st0" d="M11.39,52.1c0.21-0.12,0.39-0.28,0.53-0.48c0.14-0.2,0.24-0.42,0.3-0.67c0.07-0.25,0.1-0.52,0.1-0.79
		c0-0.2-0.02-0.4-0.07-0.61c-0.04-0.21-0.12-0.41-0.21-0.58c-0.1-0.18-0.23-0.32-0.39-0.44c-0.16-0.12-0.37-0.17-0.61-0.17
		c-0.42,0-0.73,0.27-0.93,0.83c-0.21,0.55-0.42,1.32-0.62,2.3c-0.09,0.4-0.2,0.8-0.32,1.18c-0.12,0.38-0.29,0.72-0.48,1.02
		c-0.2,0.3-0.45,0.54-0.76,0.72c-0.31,0.18-0.68,0.27-1.12,0.27c-0.65,0-1.18-0.13-1.59-0.38c-0.42-0.25-0.74-0.59-0.98-1
		c-0.24-0.42-0.41-0.88-0.51-1.4c-0.1-0.52-0.15-1.05-0.15-1.6c0-0.54,0.05-1.07,0.16-1.58c0.1-0.52,0.28-0.97,0.52-1.37
		c0.25-0.4,0.57-0.74,0.98-1c0.41-0.26,0.92-0.43,1.55-0.48v2.63c-0.53,0.04-0.89,0.24-1.08,0.6c-0.19,0.36-0.28,0.79-0.28,1.28
		c0,0.16,0.01,0.32,0.03,0.51c0.02,0.18,0.06,0.35,0.13,0.5c0.07,0.15,0.16,0.28,0.28,0.38c0.12,0.11,0.29,0.16,0.5,0.16
		c0.25,0,0.45-0.09,0.6-0.27c0.16-0.18,0.28-0.42,0.38-0.71c0.1-0.29,0.18-0.63,0.26-1c0.08-0.38,0.16-0.76,0.25-1.15
		c0.09-0.4,0.2-0.79,0.33-1.18c0.13-0.38,0.3-0.72,0.52-1.02c0.21-0.3,0.48-0.54,0.8-0.72c0.32-0.18,0.71-0.27,1.18-0.27
		c0.66,0,1.22,0.13,1.66,0.4c0.45,0.27,0.81,0.61,1.08,1.04c0.27,0.43,0.46,0.92,0.58,1.47c0.11,0.55,0.16,1.11,0.16,1.68
		c0,0.58-0.06,1.15-0.18,1.71c-0.11,0.56-0.31,1.05-0.58,1.49c-0.27,0.43-0.63,0.79-1.08,1.07c-0.45,0.28-1.01,0.43-1.68,0.46v-2.63
		C10.92,52.28,11.18,52.22,11.39,52.1"/>
	<path class="st0" d="M6.19,38.57c-0.36,0.33-0.55,0.83-0.55,1.51c0,0.44,0.07,0.81,0.22,1.1c0.15,0.29,0.33,0.53,0.55,0.7
		c0.22,0.17,0.45,0.3,0.7,0.37c0.25,0.07,0.47,0.11,0.66,0.13v-4.49C7.08,38.01,6.55,38.24,6.19,38.57 M11.48,41.7
		c0.4-0.42,0.6-1.01,0.6-1.79c0-0.56-0.14-1.04-0.42-1.44c-0.28-0.4-0.57-0.65-0.88-0.74v-2.43c1.21,0.39,2.07,0.99,2.59,1.79
		c0.52,0.8,0.78,1.78,0.78,2.92c0,0.79-0.13,1.5-0.38,2.14c-0.25,0.63-0.61,1.17-1.08,1.61c-0.47,0.44-1.03,0.78-1.67,1.02
		c-0.65,0.24-1.36,0.36-2.14,0.36c-0.75,0-1.45-0.12-2.1-0.37c-0.65-0.24-1.21-0.6-1.68-1.05c-0.47-0.45-0.85-1-1.12-1.62
		C3.7,41.46,3.56,40.77,3.56,40c0-0.86,0.17-1.6,0.5-2.24c0.33-0.63,0.78-1.16,1.33-1.57s1.19-0.7,1.91-0.89
		c0.71-0.18,1.46-0.25,2.24-0.19v7.26C10.43,42.34,11.08,42.11,11.48,41.7"/>
	<path class="st0" d="M3.83,31.69H5.7v-0.04c-0.31-0.13-0.6-0.3-0.87-0.53c-0.27-0.22-0.49-0.47-0.68-0.76
		c-0.19-0.28-0.34-0.59-0.44-0.91c-0.1-0.32-0.16-0.66-0.16-1.01c0-0.18,0.03-0.38,0.1-0.6h2.57c-0.03,0.13-0.05,0.29-0.07,0.47
		c-0.02,0.18-0.03,0.36-0.03,0.52c0,0.51,0.09,0.93,0.25,1.28c0.17,0.35,0.4,0.63,0.69,0.84c0.29,0.22,0.63,0.37,1.02,0.46
		c0.39,0.09,0.81,0.13,1.26,0.13h4.53v2.76H3.83V31.69z"/>
	<path class="st0" d="M2.69,24.31h11.2v2.76H2.69V24.31z M2.28,27.07H0v-2.76h2.28V27.07z"/>
	<rect y="20.82" class="st0" width="13.89" height="2.76"/>
	<path class="st0" d="M13.89,13.21h-1.4v0.06c0.58,0.35,1.01,0.8,1.27,1.36c0.26,0.56,0.39,1.13,0.39,1.71
		c0,0.74-0.1,1.35-0.29,1.82c-0.19,0.47-0.47,0.85-0.83,1.12c-0.36,0.27-0.79,0.47-1.3,0.58c-0.51,0.11-1.08,0.17-1.7,0.17H3.83
		v-2.76h5.68c0.83,0,1.45-0.13,1.86-0.39c0.41-0.26,0.61-0.72,0.61-1.38c0-0.75-0.22-1.3-0.67-1.63c-0.45-0.34-1.18-0.5-2.21-0.5
		H3.83v-2.76h10.06V13.21z"/>
	<path class="st0" d="M9.21,3.59c0.06,0.17,0.11,0.36,0.14,0.56c0.04,0.2,0.07,0.41,0.1,0.63C9.48,5,9.51,5.22,9.55,5.44
		c0.04,0.21,0.09,0.41,0.16,0.61c0.07,0.2,0.15,0.38,0.26,0.53c0.11,0.15,0.25,0.27,0.42,0.36c0.17,0.09,0.38,0.14,0.64,0.14
		c0.25,0,0.45-0.04,0.62-0.14c0.17-0.09,0.3-0.21,0.4-0.37c0.1-0.16,0.17-0.34,0.2-0.54c0.04-0.21,0.06-0.42,0.06-0.64
		c0-0.55-0.09-0.97-0.27-1.27c-0.18-0.3-0.4-0.52-0.65-0.66c-0.25-0.14-0.51-0.23-0.77-0.26C10.36,3.16,10.16,3.15,10,3.15H8.97
		C9.07,3.26,9.15,3.41,9.21,3.59 M5.31,9.04C4.88,8.76,4.54,8.39,4.28,7.95C4.02,7.51,3.84,7.02,3.73,6.46
		C3.62,5.91,3.56,5.36,3.56,4.8c0-0.51,0.04-1.02,0.11-1.54c0.07-0.52,0.21-0.99,0.42-1.42c0.21-0.43,0.5-0.78,0.87-1.05
		c0.37-0.27,0.86-0.41,1.47-0.41h5.23c0.45,0,0.89-0.02,1.3-0.08c0.42-0.05,0.73-0.14,0.94-0.27v2.8c-0.16,0.05-0.31,0.09-0.48,0.12
		c-0.16,0.03-0.33,0.06-0.5,0.07c0.45,0.44,0.77,0.96,0.95,1.56c0.18,0.6,0.27,1.21,0.27,1.83c0,0.48-0.06,0.93-0.18,1.34
		c-0.12,0.42-0.3,0.78-0.54,1.09c-0.25,0.31-0.56,0.56-0.93,0.73c-0.38,0.18-0.82,0.26-1.34,0.26c-0.57,0-1.04-0.1-1.41-0.3
		c-0.37-0.2-0.66-0.46-0.89-0.78c-0.22-0.32-0.39-0.68-0.5-1.09c-0.11-0.41-0.2-0.82-0.26-1.23C8.03,6.02,7.98,5.61,7.94,5.21
		c-0.04-0.4-0.1-0.76-0.18-1.07C7.69,3.83,7.57,3.58,7.42,3.4C7.27,3.22,7.06,3.13,6.77,3.15c-0.3,0-0.53,0.05-0.71,0.14
		c-0.17,0.1-0.31,0.23-0.41,0.39c-0.1,0.16-0.16,0.35-0.19,0.57C5.42,4.46,5.41,4.69,5.41,4.94c0,0.54,0.12,0.97,0.35,1.28
		c0.23,0.31,0.62,0.49,1.17,0.55v2.76C6.28,9.49,5.74,9.33,5.31,9.04"/>
</g>
</svg>
