<?xml version="1.0" encoding="utf-8"?>
<!-- Generator: Adobe Illustrator 27.7.0, SVG Export Plug-In . SVG Version: 6.00 Build 0)  -->
<svg version="1.1" id="Capa_1" xmlns="http://www.w3.org/2000/svg" xmlns:xlink="http://www.w3.org/1999/xlink" x="0px" y="0px"
	 viewBox="0 0 263 75" style="enable-background:new 0 0 263 75;" xml:space="preserve">
<style type="text/css">
	.st0{fill:#FFFFFF;}
</style>
<g>
	<g>
		<g>
			<g>
				<path class="st0" d="M91.29,7.43h1.26l6.28,14.94h-2.14l-1.45-3.66h-6.69l-1.47,3.66h-2.06L91.29,7.43z M94.52,16.94l-2.62-6.56
					l-2.64,6.56H94.52z"/>
				<path class="st0" d="M104.48,14.69l-4.78-7.25h2.29l3.72,5.65l3.68-5.65h2.21l-4.78,7.3l5.04,7.64h-2.29l-3.98-6.04l-3.94,6.04
					h-2.21L104.48,14.69z"/>
				<path class="st0" d="M114.15,7.43h9.18l-0.61,1.82h-6.62v4.42h5.93v1.82h-5.93v5.07h6.71l0.61,1.82h-9.27V7.43z"/>
				<path class="st0" d="M126.23,7.43h1.65l7.64,10.65V7.43h1.95v14.94h-1.1l-8.18-11.41v11.41h-1.95V7.43z"/>
				<path class="st0" d="M140.58,14.79c0-4.63,2.53-7.71,6.58-7.71c1.75,0,3.62,0.65,4.98,1.67v2.27c-1.65-1.23-3.46-2.08-4.98-2.08
					c-2.6,0-4.5,2.21-4.5,5.85c0,3.77,1.82,6.06,4.5,6.06c1.52,0,3.33-0.84,4.98-2.08v2.27c-1.36,1.02-3.23,1.67-4.98,1.67
					C143.03,22.72,140.58,19.56,140.58,14.79z"/>
				<path class="st0" d="M155.22,7.43h1.95v14.94h-1.95V7.43z"/>
				<path class="st0" d="M165.74,7.43H167l6.28,14.94h-2.14l-1.45-3.66h-6.69l-1.47,3.66h-2.06L165.74,7.43z M168.97,16.94
					l-2.62-6.56l-2.64,6.56H168.97z"/>
				<path class="st0" d="M180.46,14.84c0-4.65,2.9-7.75,7.34-7.75c1.67,0,3.66,0.65,5.13,1.52v2.25c-1.84-1.15-3.83-1.91-5.13-1.91
					c-3.1,0-5.26,2.36-5.26,5.89c0,3.75,1.88,6.06,4.68,6.06c2.6,0,4.48-1.65,4.72-4.44h-4.18l-0.58-1.82h6.69
					c0.09,0.41,0.13,0.87,0.13,1.36c0,3.96-2.62,6.75-6.78,6.75S180.46,19.71,180.46,14.84z"/>
				<path class="st0" d="M201.65,7.43h1.26l6.28,14.94h-2.14l-1.45-3.66h-6.69l-1.47,3.66h-2.06L201.65,7.43z M204.88,16.94
					l-2.62-6.56l-2.64,6.56H204.88z"/>
				<path class="st0" d="M211.48,7.43h1.95v13.12h6.93l0.61,1.82h-9.48V7.43z"/>
				<path class="st0" d="M223.35,7.43h9.18l-0.61,1.82h-6.62v4.42h5.93v1.82h-5.93v5.07h6.71l0.61,1.82h-9.27V7.43z"/>
				<path class="st0" d="M234.32,14.84c0-4.65,2.9-7.75,7.34-7.75c1.67,0,3.66,0.65,5.13,1.52v2.25c-1.84-1.15-3.83-1.91-5.13-1.91
					c-3.1,0-5.26,2.36-5.26,5.89c0,3.75,1.88,6.06,4.68,6.06c2.6,0,4.48-1.65,4.72-4.44h-4.18l-0.58-1.82h6.69
					c0.09,0.41,0.13,0.87,0.13,1.36c0,3.96-2.62,6.75-6.78,6.75S234.32,19.71,234.32,14.84z"/>
				<path class="st0" d="M255.52,7.43h1.26l6.28,14.94h-2.14l-1.45-3.66h-6.69l-1.47,3.66h-2.06L255.52,7.43z M258.74,16.94
					l-2.62-6.56l-2.64,6.56H258.74z"/>
			</g>
			<g>
				<path class="st0" d="M98.54,37.22c0,4.85-2.79,7.58-6.91,7.58H86.7V29.86h4.72C95.71,29.86,98.54,32.52,98.54,37.22z
					 M96.47,37.22c0-3.7-2.14-5.54-5.09-5.54h-2.73v11.3h2.86C94.41,42.98,96.47,41.07,96.47,37.22z"/>
				<path class="st0" d="M105.86,29.86h1.26l6.28,14.94h-2.14l-1.45-3.66h-6.69l-1.47,3.66h-2.06L105.86,29.86z M109.09,39.36
					l-2.62-6.56l-2.64,6.56H109.09z"/>
				<path class="st0" d="M114.69,43.98V41.9c1.26,0.8,2.81,1.41,3.94,1.41c1.99,0,3.29-0.97,3.29-2.45c0-1.43-1.28-2.1-3.03-2.97
					c-2.16-1.08-4.01-1.91-4.01-4.46c0-2.16,1.73-3.92,4.57-3.92c1.45,0,2.94,0.45,4.09,1.08v2.06c-1.41-0.76-2.9-1.3-4.09-1.3
					c-1.71,0-2.6,0.95-2.6,2.04c0,1.21,0.95,1.71,2.73,2.62c2.58,1.32,4.35,2.12,4.35,4.76c0,2.73-2.14,4.37-5.26,4.37
					C117.2,45.14,115.71,44.63,114.69,43.98z"/>
				<path class="st0" d="M132.77,29.86h1.95V44.8h-1.95V29.86z"/>
				<path class="st0" d="M138.7,29.86h1.65l7.64,10.65V29.86h1.95V44.8h-1.1l-8.18-11.41V44.8h-1.95V29.86z"/>
				<path class="st0" d="M165.76,37.22c0,4.85-2.79,7.58-6.91,7.58h-4.94V29.86h4.72C162.93,29.86,165.76,32.52,165.76,37.22z
					 M163.68,37.22c0-3.7-2.14-5.54-5.09-5.54h-2.73v11.3h2.86C161.63,42.98,163.68,41.07,163.68,37.22z"/>
				<path class="st0" d="M168.75,39.8v-9.94h1.95v9.85c0,2.32,1.41,3.62,3.57,3.62c2.16,0,3.57-1.3,3.57-3.62v-9.85h1.95v9.94
					c0,3.36-2.14,5.39-5.52,5.39C170.89,45.19,168.75,43.15,168.75,39.8z"/>
				<path class="st0" d="M182.65,43.98V41.9c1.26,0.8,2.81,1.41,3.94,1.41c1.99,0,3.29-0.97,3.29-2.45c0-1.43-1.28-2.1-3.03-2.97
					c-2.16-1.08-4-1.91-4-4.46c0-2.16,1.73-3.92,4.57-3.92c1.45,0,2.94,0.45,4.09,1.08v2.06c-1.41-0.76-2.9-1.3-4.09-1.3
					c-1.71,0-2.6,0.95-2.6,2.04c0,1.21,0.95,1.71,2.73,2.62c2.58,1.32,4.35,2.12,4.35,4.76c0,2.73-2.14,4.37-5.26,4.37
					C185.16,45.14,183.66,44.63,182.65,43.98z"/>
				<path class="st0" d="M199.25,31.68h-5.41l-0.61-1.82h13.99l-0.61,1.82h-5.41V44.8h-1.95V31.68z"/>
				<path class="st0" d="M209.47,29.86h4.33c3.14,0,5.04,1.58,5.04,4.26c0,2.58-1.77,4.18-4.59,4.33l5.74,6.34h-2.53l-5.56-6.32
					h-0.48v6.32h-1.95V29.86z M213.63,36.83c1.88,0,3.18-1.06,3.18-2.66c0-1.56-1.17-2.53-3.1-2.53h-2.29v5.2H213.63z"/>
				<path class="st0" d="M222.37,29.86h1.95V44.8h-1.95V29.86z"/>
				<path class="st0" d="M232.89,29.86h1.26l6.28,14.94h-2.14l-1.45-3.66h-6.69l-1.47,3.66h-2.06L232.89,29.86z M236.12,39.36
					l-2.62-6.56l-2.64,6.56H236.12z"/>
				<path class="st0" d="M241.73,43.98V41.9c1.26,0.8,2.81,1.41,3.94,1.41c1.99,0,3.29-0.97,3.29-2.45c0-1.43-1.28-2.1-3.03-2.97
					c-2.16-1.08-4-1.91-4-4.46c0-2.16,1.73-3.92,4.57-3.92c1.45,0,2.94,0.45,4.09,1.08v2.06c-1.41-0.76-2.9-1.3-4.09-1.3
					c-1.71,0-2.6,0.95-2.6,2.04c0,1.21,0.95,1.71,2.73,2.62c2.58,1.32,4.35,2.12,4.35,4.76c0,2.73-2.14,4.37-5.26,4.37
					C244.24,45.14,242.74,44.63,241.73,43.98z"/>
			</g>
			<g>
				<path class="st0" d="M85.84,59.65c0-4.63,2.53-7.71,6.58-7.71c1.75,0,3.62,0.65,4.98,1.67v2.27c-1.65-1.23-3.46-2.08-4.98-2.08
					c-2.6,0-4.5,2.21-4.5,5.85c0,3.77,1.82,6.06,4.5,6.06c1.52,0,3.33-0.84,4.98-2.08v2.27c-1.36,1.02-3.23,1.67-4.98,1.67
					C88.28,67.58,85.84,64.41,85.84,59.65z"/>
				<path class="st0" d="M100.34,62.23v-9.94h1.95v9.85c0,2.32,1.41,3.62,3.57,3.62c2.16,0,3.57-1.3,3.57-3.62v-9.85h1.95v9.94
					c0,3.36-2.14,5.39-5.52,5.39S100.34,65.58,100.34,62.23z"/>
				<path class="st0" d="M115.23,52.29h1.95v13.12h6.93l0.61,1.82h-9.48V52.29z"/>
				<path class="st0" d="M131.38,54.11h-5.41l-0.61-1.82h13.99l-0.61,1.82h-5.41v13.12h-1.95V54.11z"/>
				<path class="st0" d="M141.47,62.23v-9.94h1.95v9.85c0,2.32,1.41,3.62,3.57,3.62s3.57-1.3,3.57-3.62v-9.85h1.95v9.94
					c0,3.36-2.14,5.39-5.52,5.39C143.62,67.62,141.47,65.58,141.47,62.23z"/>
				<path class="st0" d="M156.37,52.29h4.33c3.14,0,5.04,1.58,5.04,4.27c0,2.58-1.77,4.18-4.59,4.33l5.74,6.34h-2.53l-5.56-6.32
					h-0.48v6.32h-1.95V52.29z M160.52,59.26c1.88,0,3.18-1.06,3.18-2.66c0-1.56-1.17-2.53-3.1-2.53h-2.29v5.2H160.52z"/>
				<path class="st0" d="M173.86,52.29h1.26l6.28,14.94h-2.14l-1.45-3.66h-6.69l-1.47,3.66h-2.06L173.86,52.29z M177.08,61.79
					l-2.62-6.56l-2.64,6.56H177.08z"/>
				<path class="st0" d="M183.69,52.29h1.95v14.94h-1.95V52.29z"/>
				<path class="st0" d="M188.62,66.41v-2.08c1.26,0.8,2.81,1.41,3.94,1.41c1.99,0,3.29-0.97,3.29-2.45c0-1.43-1.28-2.1-3.03-2.97
					c-2.16-1.08-4-1.91-4-4.46c0-2.16,1.73-3.92,4.57-3.92c1.45,0,2.94,0.46,4.09,1.08v2.06c-1.41-0.76-2.9-1.3-4.09-1.3
					c-1.71,0-2.6,0.95-2.6,2.03c0,1.21,0.95,1.71,2.73,2.62c2.58,1.32,4.35,2.12,4.35,4.76c0,2.73-2.14,4.37-5.26,4.37
					C191.13,67.58,189.64,67.06,188.62,66.41z"/>
			</g>
		</g>
		<rect x="67.26" class="st0" width="2.51" height="75"/>
	</g>
	<path class="st0" d="M-0.05,74.87h52.32V0.12H-0.05V74.87z M24.24,6.35h1.25V5.11h1.25v1.24h1.24V7.6h-1.24v1.25h-1.25V7.6h-1.25
		V6.35z M14.9,59.92h-2.49v2.49H9.92v-2.49H7.43v-2.49h2.49v-2.49h2.49v2.49h2.49V59.92z M14.9,44.97h-2.49v2.49H9.92v-2.49H7.43
		v-2.49h2.49v-2.49h2.49v2.49h2.49V44.97z M14.9,30.02h-2.49v2.49H9.92v-2.49H7.43v-2.49h2.49v-2.49h2.49v2.49h2.49V30.02z
		 M27.41,56.09c-0.03,0.44-0.05,0.89-0.05,1.34c0,3.71,1.16,7.14,3.13,9.97h-8.74c1.97-2.82,3.13-6.26,3.13-9.97
		c0-0.45-0.02-0.9-0.05-1.34c-4.2-0.63-7.42-4.25-7.42-8.63h17.44C34.83,51.84,31.61,55.46,27.41,56.09 M29.85,27.53v2.49h-2.49
		v2.49h-2.49v-2.49h-2.49v-2.49h2.49v-2.49h2.49v2.49H29.85z M26.11,35.01c2.75,0,4.98,2.23,4.98,4.98c0,2.75-2.23,4.98-4.98,4.98
		c-2.75,0-4.98-2.23-4.98-4.98C21.13,37.24,23.36,35.01,26.11,35.01 M34.83,21.93H17.39v-1.87h17.44V21.93z M36.59,16.88l-0.92,1.31
		h-2.33l1.66-2.4c0.28-0.41,0.38-0.95,0.38-1.29c0-0.59-0.19-1.08-0.56-1.47c-0.45-0.46-1-0.7-1.64-0.7c-0.27,0-0.47,0.02-0.47,0.02
		l-0.01-0.01c0.14,0.49,0.21,0.97,0.21,1.42c0,0.81-0.09,1.5-0.52,2.22l-1.3,2.19h-2.27l1.84-3.13c0.17-0.29,0.31-0.85,0.31-1.28
		c0-0.64-0.2-1.16-0.61-1.58c-0.48-0.5-1.03-0.75-1.65-0.75c-0.77,0-1.33,0.22-1.7,0.68v6.07h-1.87v-6.07
		c-0.38-0.46-0.93-0.68-1.7-0.68c-0.61,0-1.16,0.25-1.64,0.75c-0.41,0.42-0.61,0.94-0.61,1.58c0,0.43,0.13,0.99,0.31,1.28l1.84,3.13
		h-2.27l-1.29-2.19c-0.43-0.72-0.52-1.41-0.52-2.22c0-0.45,0.08-0.93,0.21-1.42l-0.01,0.01c0,0-0.2-0.02-0.47-0.02
		c-0.64,0-1.19,0.24-1.64,0.7c-0.38,0.39-0.57,0.88-0.57,1.47c0,0.34,0.1,0.88,0.38,1.29l1.67,2.4h-2.33l-0.91-1.31
		c-0.5-0.72-0.73-1.47-0.73-2.38c0-1.17,0.41-2.14,1.21-2.89c0.81-0.83,1.79-1.25,2.92-1.25c0.48,0,1,0.1,1.55,0.28
		c0.04-0.05,0.08-0.09,0.13-0.13c0.74-0.69,1.67-1.04,2.77-1.04c0.95,0,1.84,0.29,2.63,0.87c0.79-0.58,1.68-0.87,2.63-0.87
		c1.1,0,2.03,0.35,2.77,1.04c0.05,0.04,0.09,0.09,0.13,0.13c0.54-0.18,1.06-0.28,1.54-0.28c1.13,0,2.11,0.42,2.92,1.25
		c0.8,0.75,1.21,1.72,1.21,2.89C37.32,15.41,37.09,16.16,36.59,16.88 M44.8,59.92h-2.49v2.49h-2.49v-2.49h-2.49v-2.49h2.49v-2.49
		h2.49v2.49h2.49V59.92z M44.8,44.97h-2.49v2.49h-2.49v-2.49h-2.49v-2.49h2.49v-2.49h2.49v2.49h2.49V44.97z M44.8,30.02h-2.49v2.49
		h-2.49v-2.49h-2.49v-2.49h2.49v-2.49h2.49v2.49h2.49V30.02z"/>
</g>
</svg>
