<?xml version="1.0" encoding="UTF-8"?>
<svg id="Capa_1" data-name="Capa 1" xmlns="http://www.w3.org/2000/svg" viewBox="0 0 960 960">
  <defs>
    <style>
      .cls-1 {
        fill: #00cdc2;
      }

      .cls-2 {
        fill: #fff;
      }

      .cls-3 {
        fill: #ffe664;
      }

      .cls-4 {
        fill: #ff6b76;
      }

      .cls-5 {
        fill: #2e2e2e;
      }
    </style>
  </defs>
  <g>
    <g>
      <rect class="cls-4" width="480" height="480"/>
      <rect class="cls-5" x="80" y="293.33" width="106.67" height="106.67"/>
      <polygon class="cls-2" points="186.67 80 80 80 80 186.67 80 293.33 186.67 293.33 186.67 186.67 293.33 186.67 293.33 80 186.67 80"/>
      <rect class="cls-5" x="186.67" y="186.67" width="106.67" height="106.67"/>
      <rect class="cls-5" x="293.33" y="80" width="106.67" height="106.67"/>
    </g>
    <g>
      <g>
        <rect class="cls-1" x="480" y="0" width="480" height="480"/>
        <rect class="cls-5" x="680" y="-40" width="80" height="320" transform="translate(840 -600) rotate(90)"/>
        <rect class="cls-5" x="680" y="200" width="80" height="320" transform="translate(360 1080) rotate(-90)"/>
      </g>
      <rect class="cls-2" x="560" y="199.45" width="160" height="80"/>
    </g>
  </g>
  <g>
    <g>
      <rect class="cls-3" y="480" width="480" height="480"/>
      <polyline class="cls-5" points="80 879.94 400 879.94 400 825.94 160 772.79 160 772.79 400 719.63 400 719.45 160 666.3 400 613.14 400 559.94 80 559.94"/>
      <polygon class="cls-2" points="400 719.45 400 666.3 160 666.3 400 719.45"/>
      <polygon class="cls-2" points="400 825.94 400 772.79 160 772.79 400 825.94"/>
    </g>
    <g>
      <rect class="cls-5" x="480" y="480" width="480" height="480"/>
      <path class="cls-1" d="m879.95,720.55c0-88.34-71.61-159.95-159.95-159.95v319.9c88.34,0,159.95-71.61,159.95-159.95"/>
      <polygon class="cls-2" points="720 640.55 720 560.55 560 560.55 560 640.55 560 800.55 560 800.55 560 880.55 720 880.55 720 800.55 640 800.55 640 640.55 720 640.55"/>
    </g>
  </g>
</svg>