<?xml version="1.0" encoding="UTF-8"?>
<svg id="Capa_1" data-name="Capa 1" xmlns="http://www.w3.org/2000/svg" viewBox="0 0 480 120">
  <defs>
    <style>
      .cls-1 {
        fill: #00cdc2;
      }

      .cls-2 {
        fill: #fff;
      }

      .cls-3 {
        fill: #ffe664;
      }

      .cls-4 {
        fill: #ff6b76;
      }

      .cls-5 {
        fill: #2e2e2e;
      }
    </style>
  </defs>
  <g>
    <g>
      <rect class="cls-4" width="120" height="120"/>
      <rect class="cls-5" x="20" y="73.33" width="26.67" height="26.67"/>
      <polygon class="cls-2" points="46.67 20 20 20 20 46.67 20 73.33 46.67 73.33 46.67 46.67 73.33 46.67 73.33 20 46.67 20"/>
      <rect class="cls-5" x="46.67" y="46.67" width="26.67" height="26.67"/>
      <rect class="cls-5" x="73.33" y="20" width="26.67" height="26.67"/>
    </g>
    <g>
      <g>
        <rect class="cls-1" x="120" y="0" width="120" height="120"/>
        <rect class="cls-5" x="170" y="-10" width="20" height="80" transform="translate(210 -150) rotate(90)"/>
        <rect class="cls-5" x="170" y="50" width="20" height="80" transform="translate(90 270) rotate(-90)"/>
      </g>
      <rect class="cls-2" x="140" y="49.86" width="40" height="20"/>
    </g>
  </g>
  <g>
    <g>
      <rect class="cls-3" x="240" y="0" width="120" height="120"/>
      <polyline class="cls-5" points="260 99.99 340 99.99 340 86.49 280 73.2 280 73.2 340 59.91 340 59.86 280 46.57 340 33.29 340 19.99 260 19.99"/>
      <polygon class="cls-2" points="340 59.86 340 46.57 280 46.57 340 59.86"/>
      <polygon class="cls-2" points="340 86.49 340 73.2 280 73.2 340 86.49"/>
    </g>
    <g>
      <rect class="cls-5" x="360" y="0" width="120" height="120"/>
      <path class="cls-1" d="m459.99,60.14c0-22.08-17.9-39.99-39.99-39.99v79.98c22.08,0,39.99-17.9,39.99-39.99"/>
      <polygon class="cls-2" points="420 40.14 420 20.14 380 20.14 380 40.14 380 80.14 380 80.14 380 100.14 420 100.14 420 80.14 400 80.14 400 40.14 420 40.14"/>
    </g>
  </g>
</svg>